<mxfile host="app.diagrams.net" agent="Mozilla/5.0 (X11; Linux x86_64) AppleWebKit/537.36 (KHTML, like Gecko) Chrome/138.0.0.0 Safari/537.36" version="28.0.6">
  <diagram name="FiberInfra" id="E2ch0udGRBGMKKDzXOlz">
    <mxGraphModel dx="2073" dy="569" grid="1" gridSize="10" guides="1" tooltips="1" connect="1" arrows="1" fold="1" page="1" pageScale="1" pageWidth="827" pageHeight="1169" background="#FFFFFF" math="0" shadow="0">
      <root>
        <mxCell id="0" />
        <mxCell id="1" parent="0" />
        <mxCell id="nEhI5jP0B7-pswk62QWr-11" value="" style="rounded=0;whiteSpace=wrap;html=1;fillColor=#FFE2DD;strokeColor=light-dark(#CC0066,#BABDC0);" vertex="1" parent="1">
          <mxGeometry x="-659.81" y="3108.23" width="1754.36" height="206.15" as="geometry" />
        </mxCell>
        <mxCell id="nEhI5jP0B7-pswk62QWr-10" value="" style="rounded=0;whiteSpace=wrap;html=1;fillColor=#DEC3ED;strokeColor=#4C0099;" vertex="1" parent="1">
          <mxGeometry x="-316.51" y="2846.64" width="1410.87" height="206.15" as="geometry" />
        </mxCell>
        <mxCell id="nEhI5jP0B7-pswk62QWr-9" value="" style="rounded=0;whiteSpace=wrap;html=1;fillColor=#C7FCE7;strokeColor=#3333FF;" vertex="1" parent="1">
          <mxGeometry x="-685" y="2576.1499999999996" width="1539.99" height="206.15" as="geometry" />
        </mxCell>
        <mxCell id="nEhI5jP0B7-pswk62QWr-8" value="" style="rounded=0;whiteSpace=wrap;html=1;fillColor=#E6E6E6;strokeColor=#B5739D;" vertex="1" parent="1">
          <mxGeometry x="-174.75" y="2288.23" width="1410.87" height="206.15" as="geometry" />
        </mxCell>
        <mxCell id="nEhI5jP0B7-pswk62QWr-7" value="" style="rounded=0;whiteSpace=wrap;html=1;fillColor=#FFF7C4;strokeColor=#FFB570;" vertex="1" parent="1">
          <mxGeometry x="420" y="2032.82" width="1213.5" height="206.15" as="geometry" />
        </mxCell>
        <mxCell id="nEhI5jP0B7-pswk62QWr-6" value="" style="rounded=0;whiteSpace=wrap;html=1;fillColor=#FAFFD3;strokeColor=#FFFF33;" vertex="1" parent="1">
          <mxGeometry x="-316.51" y="1803.85" width="1410.87" height="206.15" as="geometry" />
        </mxCell>
        <mxCell id="nEhI5jP0B7-pswk62QWr-5" value="" style="rounded=0;whiteSpace=wrap;html=1;fillColor=light-dark(#f1ecf4, #392f3f);strokeColor=#9673a6;" vertex="1" parent="1">
          <mxGeometry x="-437.63" y="1320" width="917.63" height="450" as="geometry" />
        </mxCell>
        <mxCell id="nEhI5jP0B7-pswk62QWr-4" value="" style="rounded=0;whiteSpace=wrap;html=1;fillColor=#CCFFCC;strokeColor=#82b366;" vertex="1" parent="1">
          <mxGeometry x="-316.5100000000001" y="1104.57" width="1410.87" height="191.74" as="geometry" />
        </mxCell>
        <mxCell id="nEhI5jP0B7-pswk62QWr-2" value="" style="rounded=0;whiteSpace=wrap;html=1;fillColor=#FFF8EF;strokeColor=#F19C99;" vertex="1" parent="1">
          <mxGeometry x="-320.87" y="878.26" width="1410.87" height="191.74" as="geometry" />
        </mxCell>
        <mxCell id="nEhI5jP0B7-pswk62QWr-1" value="" style="rounded=0;whiteSpace=wrap;html=1;fillColor=#EFF6FC;strokeColor=#6c8ebf;" vertex="1" parent="1">
          <mxGeometry x="-320" y="430" width="770" height="420" as="geometry" />
        </mxCell>
        <mxCell id="mprhrPH2lkljQKYMVjD2-381" value="" style="rounded=0;whiteSpace=wrap;html=1;" parent="1" vertex="1">
          <mxGeometry x="-157.37" y="1395" width="557.37" height="10" as="geometry" />
        </mxCell>
        <mxCell id="mprhrPH2lkljQKYMVjD2-90" value="" style="rounded=0;whiteSpace=wrap;html=1;rotation=90;" parent="1" vertex="1">
          <mxGeometry x="561.75" y="980.87" width="78.25" height="9.13" as="geometry" />
        </mxCell>
        <mxCell id="mprhrPH2lkljQKYMVjD2-108" value="" style="triangle;whiteSpace=wrap;html=1;rotation=-180;direction=south;" parent="1" vertex="1">
          <mxGeometry x="560" y="1005.87" width="80" height="60" as="geometry" />
        </mxCell>
        <mxCell id="mprhrPH2lkljQKYMVjD2-109" value="1:16" style="text;html=1;align=center;verticalAlign=middle;whiteSpace=wrap;rounded=0;" parent="1" vertex="1">
          <mxGeometry x="570" y="1025.87" width="60" height="30" as="geometry" />
        </mxCell>
        <mxCell id="mprhrPH2lkljQKYMVjD2-105" value="" style="rounded=0;whiteSpace=wrap;html=1;rotation=90;" parent="1" vertex="1">
          <mxGeometry x="430" y="979.13" width="78.25" height="9.13" as="geometry" />
        </mxCell>
        <mxCell id="mprhrPH2lkljQKYMVjD2-26" value="" style="rounded=0;whiteSpace=wrap;html=1;rotation=-180;" parent="1" vertex="1">
          <mxGeometry x="-180.88" y="494.13" width="78.25" height="9.13" as="geometry" />
        </mxCell>
        <mxCell id="mprhrPH2lkljQKYMVjD2-24" value="" style="rounded=0;whiteSpace=wrap;html=1;rotation=-180;" parent="1" vertex="1">
          <mxGeometry x="-40" y="495" width="78.25" height="9.13" as="geometry" />
        </mxCell>
        <mxCell id="mprhrPH2lkljQKYMVjD2-25" value="" style="rounded=0;whiteSpace=wrap;html=1;rotation=90;" parent="1" vertex="1">
          <mxGeometry x="2.6299999999999955" y="530" width="78.25" height="9.13" as="geometry" />
        </mxCell>
        <mxCell id="mprhrPH2lkljQKYMVjD2-22" value="" style="rounded=0;whiteSpace=wrap;html=1;rotation=-180;" parent="1" vertex="1">
          <mxGeometry x="100" y="494.13" width="78.25" height="9.13" as="geometry" />
        </mxCell>
        <mxCell id="mprhrPH2lkljQKYMVjD2-19" value="" style="rounded=0;whiteSpace=wrap;html=1;rotation=-180;" parent="1" vertex="1">
          <mxGeometry x="240" y="495" width="78.25" height="9.13" as="geometry" />
        </mxCell>
        <mxCell id="mprhrPH2lkljQKYMVjD2-17" value="" style="rounded=0;whiteSpace=wrap;html=1;" parent="1" vertex="1">
          <mxGeometry x="-270" y="475" width="670" height="10" as="geometry" />
        </mxCell>
        <mxCell id="mprhrPH2lkljQKYMVjD2-1" value="" style="rounded=0;whiteSpace=wrap;html=1;rotation=90;" parent="1" vertex="1">
          <mxGeometry x="-1157.82" y="2022.82" width="3135.63" height="10" as="geometry" />
        </mxCell>
        <mxCell id="mprhrPH2lkljQKYMVjD2-8" value="" style="triangle;whiteSpace=wrap;html=1;rotation=-180;" parent="1" vertex="1">
          <mxGeometry x="-220" y="440" width="70" height="80" as="geometry" />
        </mxCell>
        <mxCell id="mprhrPH2lkljQKYMVjD2-9" value="5/95" style="text;html=1;align=center;verticalAlign=middle;whiteSpace=wrap;rounded=0;" parent="1" vertex="1">
          <mxGeometry x="-200" y="465" width="60" height="30" as="geometry" />
        </mxCell>
        <mxCell id="mprhrPH2lkljQKYMVjD2-11" value="" style="triangle;whiteSpace=wrap;html=1;rotation=-180;" parent="1" vertex="1">
          <mxGeometry x="-80" y="440" width="70" height="80" as="geometry" />
        </mxCell>
        <mxCell id="mprhrPH2lkljQKYMVjD2-12" value="5/95" style="text;html=1;align=center;verticalAlign=middle;whiteSpace=wrap;rounded=0;" parent="1" vertex="1">
          <mxGeometry x="-60" y="465" width="60" height="30" as="geometry" />
        </mxCell>
        <mxCell id="mprhrPH2lkljQKYMVjD2-13" value="" style="triangle;whiteSpace=wrap;html=1;rotation=-180;" parent="1" vertex="1">
          <mxGeometry x="50" y="440" width="70" height="80" as="geometry" />
        </mxCell>
        <mxCell id="mprhrPH2lkljQKYMVjD2-14" value="5/95" style="text;html=1;align=center;verticalAlign=middle;whiteSpace=wrap;rounded=0;" parent="1" vertex="1">
          <mxGeometry x="70" y="465" width="60" height="30" as="geometry" />
        </mxCell>
        <mxCell id="mprhrPH2lkljQKYMVjD2-15" value="" style="triangle;whiteSpace=wrap;html=1;rotation=-180;" parent="1" vertex="1">
          <mxGeometry x="190" y="440" width="70" height="80" as="geometry" />
        </mxCell>
        <mxCell id="mprhrPH2lkljQKYMVjD2-16" value="5/95" style="text;html=1;align=center;verticalAlign=middle;whiteSpace=wrap;rounded=0;" parent="1" vertex="1">
          <mxGeometry x="210" y="465" width="60" height="30" as="geometry" />
        </mxCell>
        <mxCell id="mprhrPH2lkljQKYMVjD2-18" value="" style="rounded=0;whiteSpace=wrap;html=1;rotation=90;" parent="1" vertex="1">
          <mxGeometry x="278.16" y="524.66" width="69.83" height="9.13" as="geometry" />
        </mxCell>
        <mxCell id="mprhrPH2lkljQKYMVjD2-23" value="" style="rounded=0;whiteSpace=wrap;html=1;rotation=90;" parent="1" vertex="1">
          <mxGeometry x="142.63" y="529.13" width="78.25" height="9.13" as="geometry" />
        </mxCell>
        <mxCell id="mprhrPH2lkljQKYMVjD2-27" value="" style="rounded=0;whiteSpace=wrap;html=1;rotation=90;" parent="1" vertex="1">
          <mxGeometry x="-138.25" y="529.13" width="78.25" height="9.13" as="geometry" />
        </mxCell>
        <mxCell id="mprhrPH2lkljQKYMVjD2-28" value="" style="triangle;whiteSpace=wrap;html=1;rotation=-180;direction=south;" parent="1" vertex="1">
          <mxGeometry x="-138.25" y="555" width="80" height="60" as="geometry" />
        </mxCell>
        <mxCell id="mprhrPH2lkljQKYMVjD2-29" value="1:16" style="text;html=1;align=center;verticalAlign=middle;whiteSpace=wrap;rounded=0;" parent="1" vertex="1">
          <mxGeometry x="-128.25" y="575" width="60" height="30" as="geometry" />
        </mxCell>
        <mxCell id="mprhrPH2lkljQKYMVjD2-30" value="" style="triangle;whiteSpace=wrap;html=1;rotation=-180;direction=south;" parent="1" vertex="1">
          <mxGeometry x="0.8799999999999955" y="555" width="80" height="60" as="geometry" />
        </mxCell>
        <mxCell id="mprhrPH2lkljQKYMVjD2-31" value="1:16" style="text;html=1;align=center;verticalAlign=middle;whiteSpace=wrap;rounded=0;" parent="1" vertex="1">
          <mxGeometry x="10.879999999999995" y="575" width="60" height="30" as="geometry" />
        </mxCell>
        <mxCell id="mprhrPH2lkljQKYMVjD2-32" value="" style="triangle;whiteSpace=wrap;html=1;rotation=-180;direction=south;" parent="1" vertex="1">
          <mxGeometry x="142.63" y="555" width="80" height="60" as="geometry" />
        </mxCell>
        <mxCell id="mprhrPH2lkljQKYMVjD2-33" value="1:16" style="text;html=1;align=center;verticalAlign=middle;whiteSpace=wrap;rounded=0;" parent="1" vertex="1">
          <mxGeometry x="152.63" y="575" width="60" height="30" as="geometry" />
        </mxCell>
        <mxCell id="mprhrPH2lkljQKYMVjD2-34" value="" style="triangle;whiteSpace=wrap;html=1;rotation=-180;direction=south;" parent="1" vertex="1">
          <mxGeometry x="273.07" y="555" width="80" height="60" as="geometry" />
        </mxCell>
        <mxCell id="mprhrPH2lkljQKYMVjD2-35" value="1:16" style="text;html=1;align=center;verticalAlign=middle;whiteSpace=wrap;rounded=0;" parent="1" vertex="1">
          <mxGeometry x="283.07" y="575" width="60" height="30" as="geometry" />
        </mxCell>
        <mxCell id="mprhrPH2lkljQKYMVjD2-88" value="" style="rounded=0;whiteSpace=wrap;html=1;rotation=-180;" parent="1" vertex="1">
          <mxGeometry x="460" y="938.6999999999999" width="78.25" height="9.13" as="geometry" />
        </mxCell>
        <mxCell id="mprhrPH2lkljQKYMVjD2-89" value="" style="rounded=0;whiteSpace=wrap;html=1;rotation=-180;" parent="1" vertex="1">
          <mxGeometry x="589.12" y="940.4399999999999" width="78.25" height="9.13" as="geometry" />
        </mxCell>
        <mxCell id="mprhrPH2lkljQKYMVjD2-93" value="" style="rounded=0;whiteSpace=wrap;html=1;" parent="1" vertex="1">
          <mxGeometry x="420" y="920" width="620" height="10" as="geometry" />
        </mxCell>
        <mxCell id="mprhrPH2lkljQKYMVjD2-95" value="" style="triangle;whiteSpace=wrap;html=1;rotation=0;" parent="1" vertex="1">
          <mxGeometry x="520.88" y="884.13" width="70" height="80" as="geometry" />
        </mxCell>
        <mxCell id="mprhrPH2lkljQKYMVjD2-96" value="5/95" style="text;html=1;align=center;verticalAlign=middle;whiteSpace=wrap;rounded=0;" parent="1" vertex="1">
          <mxGeometry x="520.88" y="908.7" width="60" height="30" as="geometry" />
        </mxCell>
        <mxCell id="mprhrPH2lkljQKYMVjD2-106" value="" style="triangle;whiteSpace=wrap;html=1;rotation=-180;direction=south;" parent="1" vertex="1">
          <mxGeometry x="430" y="1005" width="80" height="60" as="geometry" />
        </mxCell>
        <mxCell id="mprhrPH2lkljQKYMVjD2-107" value="1:16" style="text;html=1;align=center;verticalAlign=middle;whiteSpace=wrap;rounded=0;" parent="1" vertex="1">
          <mxGeometry x="440" y="1025" width="60" height="30" as="geometry" />
        </mxCell>
        <mxCell id="mprhrPH2lkljQKYMVjD2-114" value="" style="triangle;whiteSpace=wrap;html=1;rotation=0;" parent="1" vertex="1">
          <mxGeometry x="649.12" y="885.87" width="70" height="80" as="geometry" />
        </mxCell>
        <mxCell id="mprhrPH2lkljQKYMVjD2-115" value="5/95" style="text;html=1;align=center;verticalAlign=middle;whiteSpace=wrap;rounded=0;" parent="1" vertex="1">
          <mxGeometry x="649.12" y="910.8700000000001" width="60" height="30" as="geometry" />
        </mxCell>
        <mxCell id="mprhrPH2lkljQKYMVjD2-116" value="" style="rounded=0;whiteSpace=wrap;html=1;rotation=90;" parent="1" vertex="1">
          <mxGeometry x="691.75" y="979.13" width="78.25" height="9.13" as="geometry" />
        </mxCell>
        <mxCell id="mprhrPH2lkljQKYMVjD2-117" value="" style="triangle;whiteSpace=wrap;html=1;rotation=-180;direction=south;" parent="1" vertex="1">
          <mxGeometry x="690" y="1004.13" width="80" height="60" as="geometry" />
        </mxCell>
        <mxCell id="mprhrPH2lkljQKYMVjD2-118" value="1:16" style="text;html=1;align=center;verticalAlign=middle;whiteSpace=wrap;rounded=0;" parent="1" vertex="1">
          <mxGeometry x="700" y="1024.1299999999999" width="60" height="30" as="geometry" />
        </mxCell>
        <mxCell id="mprhrPH2lkljQKYMVjD2-119" value="" style="rounded=0;whiteSpace=wrap;html=1;rotation=-180;" parent="1" vertex="1">
          <mxGeometry x="719.12" y="938.6999999999999" width="78.25" height="9.13" as="geometry" />
        </mxCell>
        <mxCell id="mprhrPH2lkljQKYMVjD2-120" value="" style="triangle;whiteSpace=wrap;html=1;rotation=0;" parent="1" vertex="1">
          <mxGeometry x="779.12" y="884.13" width="70" height="80" as="geometry" />
        </mxCell>
        <mxCell id="mprhrPH2lkljQKYMVjD2-121" value="5/95" style="text;html=1;align=center;verticalAlign=middle;whiteSpace=wrap;rounded=0;" parent="1" vertex="1">
          <mxGeometry x="779.12" y="909.1300000000001" width="60" height="30" as="geometry" />
        </mxCell>
        <mxCell id="mprhrPH2lkljQKYMVjD2-122" value="" style="rounded=0;whiteSpace=wrap;html=1;rotation=90;" parent="1" vertex="1">
          <mxGeometry x="828.75" y="980.87" width="78.25" height="9.13" as="geometry" />
        </mxCell>
        <mxCell id="mprhrPH2lkljQKYMVjD2-123" value="" style="triangle;whiteSpace=wrap;html=1;rotation=-180;direction=south;" parent="1" vertex="1">
          <mxGeometry x="827" y="1005.87" width="80" height="60" as="geometry" />
        </mxCell>
        <mxCell id="mprhrPH2lkljQKYMVjD2-124" value="1:16" style="text;html=1;align=center;verticalAlign=middle;whiteSpace=wrap;rounded=0;" parent="1" vertex="1">
          <mxGeometry x="837" y="1025.87" width="60" height="30" as="geometry" />
        </mxCell>
        <mxCell id="mprhrPH2lkljQKYMVjD2-125" value="" style="rounded=0;whiteSpace=wrap;html=1;rotation=-180;" parent="1" vertex="1">
          <mxGeometry x="856.12" y="940.4399999999999" width="78.25" height="9.13" as="geometry" />
        </mxCell>
        <mxCell id="mprhrPH2lkljQKYMVjD2-126" value="" style="triangle;whiteSpace=wrap;html=1;rotation=0;" parent="1" vertex="1">
          <mxGeometry x="916.1199999999999" y="885.87" width="70" height="80" as="geometry" />
        </mxCell>
        <mxCell id="mprhrPH2lkljQKYMVjD2-127" value="5/95" style="text;html=1;align=center;verticalAlign=middle;whiteSpace=wrap;rounded=0;" parent="1" vertex="1">
          <mxGeometry x="916.1199999999999" y="910.87" width="60" height="30" as="geometry" />
        </mxCell>
        <mxCell id="mprhrPH2lkljQKYMVjD2-183" value="" style="rounded=0;whiteSpace=wrap;html=1;rotation=-180;" parent="1" vertex="1">
          <mxGeometry x="-180.88" y="714.13" width="78.25" height="9.13" as="geometry" />
        </mxCell>
        <mxCell id="mprhrPH2lkljQKYMVjD2-184" value="" style="rounded=0;whiteSpace=wrap;html=1;rotation=-180;" parent="1" vertex="1">
          <mxGeometry x="-40" y="715" width="78.25" height="9.13" as="geometry" />
        </mxCell>
        <mxCell id="mprhrPH2lkljQKYMVjD2-185" value="" style="rounded=0;whiteSpace=wrap;html=1;rotation=90;" parent="1" vertex="1">
          <mxGeometry x="2.6299999999999955" y="750" width="78.25" height="9.13" as="geometry" />
        </mxCell>
        <mxCell id="mprhrPH2lkljQKYMVjD2-186" value="" style="rounded=0;whiteSpace=wrap;html=1;rotation=-180;" parent="1" vertex="1">
          <mxGeometry x="100" y="714.13" width="78.25" height="9.13" as="geometry" />
        </mxCell>
        <mxCell id="mprhrPH2lkljQKYMVjD2-187" value="" style="rounded=0;whiteSpace=wrap;html=1;rotation=-180;" parent="1" vertex="1">
          <mxGeometry x="240" y="715" width="78.25" height="9.13" as="geometry" />
        </mxCell>
        <mxCell id="mprhrPH2lkljQKYMVjD2-188" value="" style="rounded=0;whiteSpace=wrap;html=1;" parent="1" vertex="1">
          <mxGeometry x="-270" y="695" width="670" height="10" as="geometry" />
        </mxCell>
        <mxCell id="mprhrPH2lkljQKYMVjD2-189" value="" style="triangle;whiteSpace=wrap;html=1;rotation=-180;" parent="1" vertex="1">
          <mxGeometry x="-220" y="660" width="70" height="80" as="geometry" />
        </mxCell>
        <mxCell id="mprhrPH2lkljQKYMVjD2-190" value="5/95" style="text;html=1;align=center;verticalAlign=middle;whiteSpace=wrap;rounded=0;" parent="1" vertex="1">
          <mxGeometry x="-200" y="685" width="60" height="30" as="geometry" />
        </mxCell>
        <mxCell id="mprhrPH2lkljQKYMVjD2-191" value="" style="triangle;whiteSpace=wrap;html=1;rotation=-180;" parent="1" vertex="1">
          <mxGeometry x="-80" y="660" width="70" height="80" as="geometry" />
        </mxCell>
        <mxCell id="mprhrPH2lkljQKYMVjD2-192" value="5/95" style="text;html=1;align=center;verticalAlign=middle;whiteSpace=wrap;rounded=0;" parent="1" vertex="1">
          <mxGeometry x="-60" y="685" width="60" height="30" as="geometry" />
        </mxCell>
        <mxCell id="mprhrPH2lkljQKYMVjD2-193" value="" style="triangle;whiteSpace=wrap;html=1;rotation=-180;" parent="1" vertex="1">
          <mxGeometry x="50" y="660" width="70" height="80" as="geometry" />
        </mxCell>
        <mxCell id="mprhrPH2lkljQKYMVjD2-194" value="5/95" style="text;html=1;align=center;verticalAlign=middle;whiteSpace=wrap;rounded=0;" parent="1" vertex="1">
          <mxGeometry x="70" y="685" width="60" height="30" as="geometry" />
        </mxCell>
        <mxCell id="mprhrPH2lkljQKYMVjD2-195" value="" style="triangle;whiteSpace=wrap;html=1;rotation=-180;" parent="1" vertex="1">
          <mxGeometry x="190" y="660" width="70" height="80" as="geometry" />
        </mxCell>
        <mxCell id="mprhrPH2lkljQKYMVjD2-196" value="5/95" style="text;html=1;align=center;verticalAlign=middle;whiteSpace=wrap;rounded=0;" parent="1" vertex="1">
          <mxGeometry x="210" y="685" width="60" height="30" as="geometry" />
        </mxCell>
        <mxCell id="mprhrPH2lkljQKYMVjD2-197" value="" style="rounded=0;whiteSpace=wrap;html=1;rotation=90;" parent="1" vertex="1">
          <mxGeometry x="278.16" y="744.66" width="69.83" height="9.13" as="geometry" />
        </mxCell>
        <mxCell id="mprhrPH2lkljQKYMVjD2-198" value="" style="rounded=0;whiteSpace=wrap;html=1;rotation=90;" parent="1" vertex="1">
          <mxGeometry x="142.63" y="749.13" width="78.25" height="9.13" as="geometry" />
        </mxCell>
        <mxCell id="mprhrPH2lkljQKYMVjD2-199" value="" style="rounded=0;whiteSpace=wrap;html=1;rotation=90;" parent="1" vertex="1">
          <mxGeometry x="-138.25" y="749.13" width="78.25" height="9.13" as="geometry" />
        </mxCell>
        <mxCell id="mprhrPH2lkljQKYMVjD2-200" value="" style="triangle;whiteSpace=wrap;html=1;rotation=-180;direction=south;" parent="1" vertex="1">
          <mxGeometry x="-138.25" y="775" width="80" height="60" as="geometry" />
        </mxCell>
        <mxCell id="mprhrPH2lkljQKYMVjD2-201" value="1:16" style="text;html=1;align=center;verticalAlign=middle;whiteSpace=wrap;rounded=0;" parent="1" vertex="1">
          <mxGeometry x="-128.25" y="795" width="60" height="30" as="geometry" />
        </mxCell>
        <mxCell id="mprhrPH2lkljQKYMVjD2-202" value="" style="triangle;whiteSpace=wrap;html=1;rotation=-180;direction=south;" parent="1" vertex="1">
          <mxGeometry x="0.8799999999999955" y="775" width="80" height="60" as="geometry" />
        </mxCell>
        <mxCell id="mprhrPH2lkljQKYMVjD2-203" value="1:16" style="text;html=1;align=center;verticalAlign=middle;whiteSpace=wrap;rounded=0;" parent="1" vertex="1">
          <mxGeometry x="10.879999999999995" y="795" width="60" height="30" as="geometry" />
        </mxCell>
        <mxCell id="mprhrPH2lkljQKYMVjD2-204" value="" style="triangle;whiteSpace=wrap;html=1;rotation=-180;direction=south;" parent="1" vertex="1">
          <mxGeometry x="142.63" y="775" width="80" height="60" as="geometry" />
        </mxCell>
        <mxCell id="mprhrPH2lkljQKYMVjD2-205" value="1:16" style="text;html=1;align=center;verticalAlign=middle;whiteSpace=wrap;rounded=0;" parent="1" vertex="1">
          <mxGeometry x="152.63" y="795" width="60" height="30" as="geometry" />
        </mxCell>
        <mxCell id="mprhrPH2lkljQKYMVjD2-206" value="" style="triangle;whiteSpace=wrap;html=1;rotation=-180;direction=south;" parent="1" vertex="1">
          <mxGeometry x="273.07" y="775" width="80" height="60" as="geometry" />
        </mxCell>
        <mxCell id="mprhrPH2lkljQKYMVjD2-207" value="1:16" style="text;html=1;align=center;verticalAlign=middle;whiteSpace=wrap;rounded=0;" parent="1" vertex="1">
          <mxGeometry x="283.07" y="795" width="60" height="30" as="geometry" />
        </mxCell>
        <mxCell id="mprhrPH2lkljQKYMVjD2-208" value="" style="rounded=0;whiteSpace=wrap;html=1;rotation=-180;" parent="1" vertex="1">
          <mxGeometry x="-180.88" y="938.26" width="78.25" height="9.13" as="geometry" />
        </mxCell>
        <mxCell id="mprhrPH2lkljQKYMVjD2-209" value="" style="rounded=0;whiteSpace=wrap;html=1;rotation=-180;" parent="1" vertex="1">
          <mxGeometry x="-40" y="939.13" width="78.25" height="9.13" as="geometry" />
        </mxCell>
        <mxCell id="mprhrPH2lkljQKYMVjD2-210" value="" style="rounded=0;whiteSpace=wrap;html=1;rotation=90;" parent="1" vertex="1">
          <mxGeometry x="2.6299999999999955" y="974.13" width="78.25" height="9.13" as="geometry" />
        </mxCell>
        <mxCell id="mprhrPH2lkljQKYMVjD2-211" value="" style="rounded=0;whiteSpace=wrap;html=1;rotation=-180;" parent="1" vertex="1">
          <mxGeometry x="100" y="938.26" width="78.25" height="9.13" as="geometry" />
        </mxCell>
        <mxCell id="mprhrPH2lkljQKYMVjD2-212" value="" style="rounded=0;whiteSpace=wrap;html=1;rotation=-180;" parent="1" vertex="1">
          <mxGeometry x="240" y="939.13" width="78.25" height="9.13" as="geometry" />
        </mxCell>
        <mxCell id="mprhrPH2lkljQKYMVjD2-213" value="" style="rounded=0;whiteSpace=wrap;html=1;" parent="1" vertex="1">
          <mxGeometry x="-270" y="919.13" width="670" height="10" as="geometry" />
        </mxCell>
        <mxCell id="mprhrPH2lkljQKYMVjD2-214" value="" style="triangle;whiteSpace=wrap;html=1;rotation=-180;" parent="1" vertex="1">
          <mxGeometry x="-220" y="884.13" width="70" height="80" as="geometry" />
        </mxCell>
        <mxCell id="mprhrPH2lkljQKYMVjD2-215" value="5/95" style="text;html=1;align=center;verticalAlign=middle;whiteSpace=wrap;rounded=0;" parent="1" vertex="1">
          <mxGeometry x="-200" y="909.13" width="60" height="30" as="geometry" />
        </mxCell>
        <mxCell id="mprhrPH2lkljQKYMVjD2-216" value="" style="triangle;whiteSpace=wrap;html=1;rotation=-180;" parent="1" vertex="1">
          <mxGeometry x="-80" y="884.13" width="70" height="80" as="geometry" />
        </mxCell>
        <mxCell id="mprhrPH2lkljQKYMVjD2-217" value="5/95" style="text;html=1;align=center;verticalAlign=middle;whiteSpace=wrap;rounded=0;" parent="1" vertex="1">
          <mxGeometry x="-60" y="909.13" width="60" height="30" as="geometry" />
        </mxCell>
        <mxCell id="mprhrPH2lkljQKYMVjD2-218" value="" style="triangle;whiteSpace=wrap;html=1;rotation=-180;" parent="1" vertex="1">
          <mxGeometry x="50" y="884.13" width="70" height="80" as="geometry" />
        </mxCell>
        <mxCell id="mprhrPH2lkljQKYMVjD2-219" value="5/95" style="text;html=1;align=center;verticalAlign=middle;whiteSpace=wrap;rounded=0;" parent="1" vertex="1">
          <mxGeometry x="70" y="909.13" width="60" height="30" as="geometry" />
        </mxCell>
        <mxCell id="mprhrPH2lkljQKYMVjD2-220" value="" style="triangle;whiteSpace=wrap;html=1;rotation=-180;" parent="1" vertex="1">
          <mxGeometry x="190" y="884.13" width="70" height="80" as="geometry" />
        </mxCell>
        <mxCell id="mprhrPH2lkljQKYMVjD2-221" value="5/95" style="text;html=1;align=center;verticalAlign=middle;whiteSpace=wrap;rounded=0;" parent="1" vertex="1">
          <mxGeometry x="210" y="909.13" width="60" height="30" as="geometry" />
        </mxCell>
        <mxCell id="mprhrPH2lkljQKYMVjD2-222" value="" style="rounded=0;whiteSpace=wrap;html=1;rotation=90;" parent="1" vertex="1">
          <mxGeometry x="278.16" y="968.79" width="69.83" height="9.13" as="geometry" />
        </mxCell>
        <mxCell id="mprhrPH2lkljQKYMVjD2-223" value="" style="rounded=0;whiteSpace=wrap;html=1;rotation=90;" parent="1" vertex="1">
          <mxGeometry x="142.63" y="973.26" width="78.25" height="9.13" as="geometry" />
        </mxCell>
        <mxCell id="mprhrPH2lkljQKYMVjD2-224" value="" style="rounded=0;whiteSpace=wrap;html=1;rotation=90;" parent="1" vertex="1">
          <mxGeometry x="-138.25" y="973.26" width="78.25" height="9.13" as="geometry" />
        </mxCell>
        <mxCell id="mprhrPH2lkljQKYMVjD2-225" value="" style="triangle;whiteSpace=wrap;html=1;rotation=-180;direction=south;" parent="1" vertex="1">
          <mxGeometry x="-138.25" y="999.13" width="80" height="60" as="geometry" />
        </mxCell>
        <mxCell id="mprhrPH2lkljQKYMVjD2-226" value="1:16" style="text;html=1;align=center;verticalAlign=middle;whiteSpace=wrap;rounded=0;" parent="1" vertex="1">
          <mxGeometry x="-128.25" y="1019.13" width="60" height="30" as="geometry" />
        </mxCell>
        <mxCell id="mprhrPH2lkljQKYMVjD2-227" value="" style="triangle;whiteSpace=wrap;html=1;rotation=-180;direction=south;" parent="1" vertex="1">
          <mxGeometry x="0.8799999999999955" y="999.13" width="80" height="60" as="geometry" />
        </mxCell>
        <mxCell id="mprhrPH2lkljQKYMVjD2-228" value="1:16" style="text;html=1;align=center;verticalAlign=middle;whiteSpace=wrap;rounded=0;" parent="1" vertex="1">
          <mxGeometry x="10.879999999999995" y="1019.13" width="60" height="30" as="geometry" />
        </mxCell>
        <mxCell id="mprhrPH2lkljQKYMVjD2-229" value="" style="triangle;whiteSpace=wrap;html=1;rotation=-180;direction=south;" parent="1" vertex="1">
          <mxGeometry x="142.63" y="999.13" width="80" height="60" as="geometry" />
        </mxCell>
        <mxCell id="mprhrPH2lkljQKYMVjD2-230" value="1:16" style="text;html=1;align=center;verticalAlign=middle;whiteSpace=wrap;rounded=0;" parent="1" vertex="1">
          <mxGeometry x="152.63" y="1019.13" width="60" height="30" as="geometry" />
        </mxCell>
        <mxCell id="mprhrPH2lkljQKYMVjD2-231" value="" style="triangle;whiteSpace=wrap;html=1;rotation=-180;direction=south;" parent="1" vertex="1">
          <mxGeometry x="273.07" y="999.13" width="80" height="60" as="geometry" />
        </mxCell>
        <mxCell id="mprhrPH2lkljQKYMVjD2-232" value="1:16" style="text;html=1;align=center;verticalAlign=middle;whiteSpace=wrap;rounded=0;" parent="1" vertex="1">
          <mxGeometry x="283.07" y="1019.13" width="60" height="30" as="geometry" />
        </mxCell>
        <mxCell id="mprhrPH2lkljQKYMVjD2-233" value="" style="rounded=0;whiteSpace=wrap;html=1;rotation=90;" parent="1" vertex="1">
          <mxGeometry x="562.62" y="1202.99" width="78.25" height="9.13" as="geometry" />
        </mxCell>
        <mxCell id="mprhrPH2lkljQKYMVjD2-234" value="" style="triangle;whiteSpace=wrap;html=1;rotation=-180;direction=south;" parent="1" vertex="1">
          <mxGeometry x="560.87" y="1227.99" width="80" height="60" as="geometry" />
        </mxCell>
        <mxCell id="mprhrPH2lkljQKYMVjD2-235" value="1:16" style="text;html=1;align=center;verticalAlign=middle;whiteSpace=wrap;rounded=0;" parent="1" vertex="1">
          <mxGeometry x="570.87" y="1247.9899999999998" width="60" height="30" as="geometry" />
        </mxCell>
        <mxCell id="mprhrPH2lkljQKYMVjD2-236" value="" style="rounded=0;whiteSpace=wrap;html=1;rotation=90;" parent="1" vertex="1">
          <mxGeometry x="430.87" y="1201.25" width="78.25" height="9.13" as="geometry" />
        </mxCell>
        <mxCell id="mprhrPH2lkljQKYMVjD2-237" value="" style="rounded=0;whiteSpace=wrap;html=1;rotation=-180;" parent="1" vertex="1">
          <mxGeometry x="460.87" y="1160.82" width="78.25" height="9.13" as="geometry" />
        </mxCell>
        <mxCell id="mprhrPH2lkljQKYMVjD2-238" value="" style="rounded=0;whiteSpace=wrap;html=1;rotation=-180;" parent="1" vertex="1">
          <mxGeometry x="589.99" y="1162.56" width="78.25" height="9.13" as="geometry" />
        </mxCell>
        <mxCell id="mprhrPH2lkljQKYMVjD2-239" value="" style="rounded=0;whiteSpace=wrap;html=1;" parent="1" vertex="1">
          <mxGeometry x="420.87" y="1142.12" width="620" height="10" as="geometry" />
        </mxCell>
        <mxCell id="mprhrPH2lkljQKYMVjD2-240" value="" style="triangle;whiteSpace=wrap;html=1;rotation=0;" parent="1" vertex="1">
          <mxGeometry x="521.75" y="1106.25" width="70" height="80" as="geometry" />
        </mxCell>
        <mxCell id="mprhrPH2lkljQKYMVjD2-241" value="5/95" style="text;html=1;align=center;verticalAlign=middle;whiteSpace=wrap;rounded=0;" parent="1" vertex="1">
          <mxGeometry x="521.75" y="1130.8200000000002" width="60" height="30" as="geometry" />
        </mxCell>
        <mxCell id="mprhrPH2lkljQKYMVjD2-242" value="" style="triangle;whiteSpace=wrap;html=1;rotation=-180;direction=south;" parent="1" vertex="1">
          <mxGeometry x="430.87" y="1227.12" width="80" height="60" as="geometry" />
        </mxCell>
        <mxCell id="mprhrPH2lkljQKYMVjD2-243" value="1:16" style="text;html=1;align=center;verticalAlign=middle;whiteSpace=wrap;rounded=0;" parent="1" vertex="1">
          <mxGeometry x="440.87" y="1247.12" width="60" height="30" as="geometry" />
        </mxCell>
        <mxCell id="mprhrPH2lkljQKYMVjD2-244" value="" style="triangle;whiteSpace=wrap;html=1;rotation=0;" parent="1" vertex="1">
          <mxGeometry x="649.99" y="1107.99" width="70" height="80" as="geometry" />
        </mxCell>
        <mxCell id="mprhrPH2lkljQKYMVjD2-245" value="5/95" style="text;html=1;align=center;verticalAlign=middle;whiteSpace=wrap;rounded=0;" parent="1" vertex="1">
          <mxGeometry x="649.99" y="1132.9900000000002" width="60" height="30" as="geometry" />
        </mxCell>
        <mxCell id="mprhrPH2lkljQKYMVjD2-246" value="" style="rounded=0;whiteSpace=wrap;html=1;rotation=90;" parent="1" vertex="1">
          <mxGeometry x="692.62" y="1201.25" width="78.25" height="9.13" as="geometry" />
        </mxCell>
        <mxCell id="mprhrPH2lkljQKYMVjD2-247" value="" style="triangle;whiteSpace=wrap;html=1;rotation=-180;direction=south;" parent="1" vertex="1">
          <mxGeometry x="690.87" y="1226.25" width="80" height="60" as="geometry" />
        </mxCell>
        <mxCell id="mprhrPH2lkljQKYMVjD2-248" value="1:16" style="text;html=1;align=center;verticalAlign=middle;whiteSpace=wrap;rounded=0;" parent="1" vertex="1">
          <mxGeometry x="700.87" y="1246.25" width="60" height="30" as="geometry" />
        </mxCell>
        <mxCell id="mprhrPH2lkljQKYMVjD2-249" value="" style="rounded=0;whiteSpace=wrap;html=1;rotation=-180;" parent="1" vertex="1">
          <mxGeometry x="719.99" y="1160.82" width="78.25" height="9.13" as="geometry" />
        </mxCell>
        <mxCell id="mprhrPH2lkljQKYMVjD2-250" value="" style="triangle;whiteSpace=wrap;html=1;rotation=0;" parent="1" vertex="1">
          <mxGeometry x="779.99" y="1106.25" width="70" height="80" as="geometry" />
        </mxCell>
        <mxCell id="mprhrPH2lkljQKYMVjD2-251" value="5/95" style="text;html=1;align=center;verticalAlign=middle;whiteSpace=wrap;rounded=0;" parent="1" vertex="1">
          <mxGeometry x="779.99" y="1131.25" width="60" height="30" as="geometry" />
        </mxCell>
        <mxCell id="mprhrPH2lkljQKYMVjD2-252" value="" style="rounded=0;whiteSpace=wrap;html=1;rotation=90;" parent="1" vertex="1">
          <mxGeometry x="829.62" y="1202.99" width="78.25" height="9.13" as="geometry" />
        </mxCell>
        <mxCell id="mprhrPH2lkljQKYMVjD2-253" value="" style="triangle;whiteSpace=wrap;html=1;rotation=-180;direction=south;" parent="1" vertex="1">
          <mxGeometry x="827.87" y="1227.99" width="80" height="60" as="geometry" />
        </mxCell>
        <mxCell id="mprhrPH2lkljQKYMVjD2-254" value="1:16" style="text;html=1;align=center;verticalAlign=middle;whiteSpace=wrap;rounded=0;" parent="1" vertex="1">
          <mxGeometry x="837.87" y="1247.9899999999998" width="60" height="30" as="geometry" />
        </mxCell>
        <mxCell id="mprhrPH2lkljQKYMVjD2-255" value="" style="rounded=0;whiteSpace=wrap;html=1;rotation=-180;" parent="1" vertex="1">
          <mxGeometry x="856.99" y="1162.56" width="78.25" height="9.13" as="geometry" />
        </mxCell>
        <mxCell id="mprhrPH2lkljQKYMVjD2-256" value="" style="triangle;whiteSpace=wrap;html=1;rotation=0;" parent="1" vertex="1">
          <mxGeometry x="916.9899999999999" y="1107.99" width="70" height="80" as="geometry" />
        </mxCell>
        <mxCell id="mprhrPH2lkljQKYMVjD2-257" value="5/95" style="text;html=1;align=center;verticalAlign=middle;whiteSpace=wrap;rounded=0;" parent="1" vertex="1">
          <mxGeometry x="916.9899999999999" y="1132.99" width="60" height="30" as="geometry" />
        </mxCell>
        <mxCell id="mprhrPH2lkljQKYMVjD2-258" value="" style="rounded=0;whiteSpace=wrap;html=1;rotation=-180;" parent="1" vertex="1">
          <mxGeometry x="-180.88" y="1160.8700000000001" width="78.25" height="9.13" as="geometry" />
        </mxCell>
        <mxCell id="mprhrPH2lkljQKYMVjD2-259" value="" style="rounded=0;whiteSpace=wrap;html=1;rotation=-180;" parent="1" vertex="1">
          <mxGeometry x="-40" y="1161.74" width="78.25" height="9.13" as="geometry" />
        </mxCell>
        <mxCell id="mprhrPH2lkljQKYMVjD2-260" value="" style="rounded=0;whiteSpace=wrap;html=1;rotation=90;" parent="1" vertex="1">
          <mxGeometry x="2.6299999999999955" y="1196.74" width="78.25" height="9.13" as="geometry" />
        </mxCell>
        <mxCell id="mprhrPH2lkljQKYMVjD2-261" value="" style="rounded=0;whiteSpace=wrap;html=1;rotation=-180;" parent="1" vertex="1">
          <mxGeometry x="100" y="1160.8700000000001" width="78.25" height="9.13" as="geometry" />
        </mxCell>
        <mxCell id="mprhrPH2lkljQKYMVjD2-262" value="" style="rounded=0;whiteSpace=wrap;html=1;rotation=-180;" parent="1" vertex="1">
          <mxGeometry x="240" y="1161.74" width="78.25" height="9.13" as="geometry" />
        </mxCell>
        <mxCell id="mprhrPH2lkljQKYMVjD2-263" value="" style="rounded=0;whiteSpace=wrap;html=1;" parent="1" vertex="1">
          <mxGeometry x="-270" y="1141.74" width="670" height="10" as="geometry" />
        </mxCell>
        <mxCell id="mprhrPH2lkljQKYMVjD2-264" value="" style="triangle;whiteSpace=wrap;html=1;rotation=-180;" parent="1" vertex="1">
          <mxGeometry x="-220" y="1106.74" width="70" height="80" as="geometry" />
        </mxCell>
        <mxCell id="mprhrPH2lkljQKYMVjD2-265" value="5/95" style="text;html=1;align=center;verticalAlign=middle;whiteSpace=wrap;rounded=0;" parent="1" vertex="1">
          <mxGeometry x="-200" y="1131.74" width="60" height="30" as="geometry" />
        </mxCell>
        <mxCell id="mprhrPH2lkljQKYMVjD2-266" value="" style="triangle;whiteSpace=wrap;html=1;rotation=-180;" parent="1" vertex="1">
          <mxGeometry x="-80" y="1106.74" width="70" height="80" as="geometry" />
        </mxCell>
        <mxCell id="mprhrPH2lkljQKYMVjD2-267" value="5/95" style="text;html=1;align=center;verticalAlign=middle;whiteSpace=wrap;rounded=0;" parent="1" vertex="1">
          <mxGeometry x="-60" y="1131.74" width="60" height="30" as="geometry" />
        </mxCell>
        <mxCell id="mprhrPH2lkljQKYMVjD2-268" value="" style="triangle;whiteSpace=wrap;html=1;rotation=-180;" parent="1" vertex="1">
          <mxGeometry x="50" y="1106.74" width="70" height="80" as="geometry" />
        </mxCell>
        <mxCell id="mprhrPH2lkljQKYMVjD2-269" value="5/95" style="text;html=1;align=center;verticalAlign=middle;whiteSpace=wrap;rounded=0;" parent="1" vertex="1">
          <mxGeometry x="70" y="1131.74" width="60" height="30" as="geometry" />
        </mxCell>
        <mxCell id="mprhrPH2lkljQKYMVjD2-270" value="" style="triangle;whiteSpace=wrap;html=1;rotation=-180;" parent="1" vertex="1">
          <mxGeometry x="190" y="1106.74" width="70" height="80" as="geometry" />
        </mxCell>
        <mxCell id="mprhrPH2lkljQKYMVjD2-271" value="5/95" style="text;html=1;align=center;verticalAlign=middle;whiteSpace=wrap;rounded=0;" parent="1" vertex="1">
          <mxGeometry x="210" y="1131.74" width="60" height="30" as="geometry" />
        </mxCell>
        <mxCell id="mprhrPH2lkljQKYMVjD2-272" value="" style="rounded=0;whiteSpace=wrap;html=1;rotation=90;" parent="1" vertex="1">
          <mxGeometry x="278.16" y="1191.3999999999999" width="69.83" height="9.13" as="geometry" />
        </mxCell>
        <mxCell id="mprhrPH2lkljQKYMVjD2-273" value="" style="rounded=0;whiteSpace=wrap;html=1;rotation=90;" parent="1" vertex="1">
          <mxGeometry x="142.63" y="1195.8700000000001" width="78.25" height="9.13" as="geometry" />
        </mxCell>
        <mxCell id="mprhrPH2lkljQKYMVjD2-274" value="" style="rounded=0;whiteSpace=wrap;html=1;rotation=90;" parent="1" vertex="1">
          <mxGeometry x="-138.25" y="1195.8700000000001" width="78.25" height="9.13" as="geometry" />
        </mxCell>
        <mxCell id="mprhrPH2lkljQKYMVjD2-275" value="" style="triangle;whiteSpace=wrap;html=1;rotation=-180;direction=south;" parent="1" vertex="1">
          <mxGeometry x="-138.25" y="1221.74" width="80" height="60" as="geometry" />
        </mxCell>
        <mxCell id="mprhrPH2lkljQKYMVjD2-276" value="1:16" style="text;html=1;align=center;verticalAlign=middle;whiteSpace=wrap;rounded=0;" parent="1" vertex="1">
          <mxGeometry x="-128.25" y="1241.74" width="60" height="30" as="geometry" />
        </mxCell>
        <mxCell id="mprhrPH2lkljQKYMVjD2-277" value="" style="triangle;whiteSpace=wrap;html=1;rotation=-180;direction=south;" parent="1" vertex="1">
          <mxGeometry x="0.8799999999999955" y="1221.74" width="80" height="60" as="geometry" />
        </mxCell>
        <mxCell id="mprhrPH2lkljQKYMVjD2-278" value="1:16" style="text;html=1;align=center;verticalAlign=middle;whiteSpace=wrap;rounded=0;" parent="1" vertex="1">
          <mxGeometry x="10.879999999999995" y="1241.74" width="60" height="30" as="geometry" />
        </mxCell>
        <mxCell id="mprhrPH2lkljQKYMVjD2-279" value="" style="triangle;whiteSpace=wrap;html=1;rotation=-180;direction=south;" parent="1" vertex="1">
          <mxGeometry x="142.63" y="1221.74" width="80" height="60" as="geometry" />
        </mxCell>
        <mxCell id="mprhrPH2lkljQKYMVjD2-280" value="1:16" style="text;html=1;align=center;verticalAlign=middle;whiteSpace=wrap;rounded=0;" parent="1" vertex="1">
          <mxGeometry x="152.63" y="1241.74" width="60" height="30" as="geometry" />
        </mxCell>
        <mxCell id="mprhrPH2lkljQKYMVjD2-281" value="" style="triangle;whiteSpace=wrap;html=1;rotation=-180;direction=south;" parent="1" vertex="1">
          <mxGeometry x="273.07" y="1221.74" width="80" height="60" as="geometry" />
        </mxCell>
        <mxCell id="mprhrPH2lkljQKYMVjD2-282" value="1:16" style="text;html=1;align=center;verticalAlign=middle;whiteSpace=wrap;rounded=0;" parent="1" vertex="1">
          <mxGeometry x="283.07" y="1241.74" width="60" height="30" as="geometry" />
        </mxCell>
        <mxCell id="mprhrPH2lkljQKYMVjD2-283" value="" style="rounded=0;whiteSpace=wrap;html=1;rotation=-180;" parent="1" vertex="1">
          <mxGeometry x="-180.88" y="1624.13" width="78.25" height="9.13" as="geometry" />
        </mxCell>
        <mxCell id="mprhrPH2lkljQKYMVjD2-284" value="" style="rounded=0;whiteSpace=wrap;html=1;rotation=-180;" parent="1" vertex="1">
          <mxGeometry x="-40" y="1625" width="78.25" height="9.13" as="geometry" />
        </mxCell>
        <mxCell id="mprhrPH2lkljQKYMVjD2-285" value="" style="rounded=0;whiteSpace=wrap;html=1;rotation=90;" parent="1" vertex="1">
          <mxGeometry x="2.6299999999999955" y="1660" width="78.25" height="9.13" as="geometry" />
        </mxCell>
        <mxCell id="mprhrPH2lkljQKYMVjD2-286" value="" style="rounded=0;whiteSpace=wrap;html=1;rotation=-180;" parent="1" vertex="1">
          <mxGeometry x="98.25" y="1624.13" width="80" height="9.13" as="geometry" />
        </mxCell>
        <mxCell id="mprhrPH2lkljQKYMVjD2-287" value="" style="rounded=0;whiteSpace=wrap;html=1;rotation=-180;" parent="1" vertex="1">
          <mxGeometry x="240" y="1625" width="78.25" height="9.13" as="geometry" />
        </mxCell>
        <mxCell id="mprhrPH2lkljQKYMVjD2-288" value="" style="rounded=0;whiteSpace=wrap;html=1;" parent="1" vertex="1">
          <mxGeometry x="-420" y="1605" width="820" height="10" as="geometry" />
        </mxCell>
        <mxCell id="mprhrPH2lkljQKYMVjD2-289" value="" style="triangle;whiteSpace=wrap;html=1;rotation=-180;" parent="1" vertex="1">
          <mxGeometry x="-220" y="1570" width="70" height="80" as="geometry" />
        </mxCell>
        <mxCell id="mprhrPH2lkljQKYMVjD2-290" value="5/95" style="text;html=1;align=center;verticalAlign=middle;whiteSpace=wrap;rounded=0;" parent="1" vertex="1">
          <mxGeometry x="-200" y="1595" width="60" height="30" as="geometry" />
        </mxCell>
        <mxCell id="mprhrPH2lkljQKYMVjD2-291" value="" style="triangle;whiteSpace=wrap;html=1;rotation=-180;" parent="1" vertex="1">
          <mxGeometry x="-80" y="1570" width="70" height="80" as="geometry" />
        </mxCell>
        <mxCell id="mprhrPH2lkljQKYMVjD2-292" value="5/95" style="text;html=1;align=center;verticalAlign=middle;whiteSpace=wrap;rounded=0;" parent="1" vertex="1">
          <mxGeometry x="-60" y="1595" width="60" height="30" as="geometry" />
        </mxCell>
        <mxCell id="mprhrPH2lkljQKYMVjD2-293" value="" style="triangle;whiteSpace=wrap;html=1;rotation=-180;" parent="1" vertex="1">
          <mxGeometry x="50" y="1570" width="70" height="80" as="geometry" />
        </mxCell>
        <mxCell id="mprhrPH2lkljQKYMVjD2-294" value="5/95" style="text;html=1;align=center;verticalAlign=middle;whiteSpace=wrap;rounded=0;" parent="1" vertex="1">
          <mxGeometry x="70" y="1595" width="60" height="30" as="geometry" />
        </mxCell>
        <mxCell id="mprhrPH2lkljQKYMVjD2-295" value="" style="triangle;whiteSpace=wrap;html=1;rotation=-180;" parent="1" vertex="1">
          <mxGeometry x="190" y="1570" width="70" height="80" as="geometry" />
        </mxCell>
        <mxCell id="mprhrPH2lkljQKYMVjD2-296" value="5/95" style="text;html=1;align=center;verticalAlign=middle;whiteSpace=wrap;rounded=0;" parent="1" vertex="1">
          <mxGeometry x="210" y="1595" width="60" height="30" as="geometry" />
        </mxCell>
        <mxCell id="mprhrPH2lkljQKYMVjD2-297" value="" style="rounded=0;whiteSpace=wrap;html=1;rotation=90;" parent="1" vertex="1">
          <mxGeometry x="278.16" y="1654.6599999999999" width="69.83" height="9.13" as="geometry" />
        </mxCell>
        <mxCell id="mprhrPH2lkljQKYMVjD2-298" value="" style="rounded=0;whiteSpace=wrap;html=1;rotation=90;" parent="1" vertex="1">
          <mxGeometry x="142.63" y="1659.13" width="78.25" height="9.13" as="geometry" />
        </mxCell>
        <mxCell id="mprhrPH2lkljQKYMVjD2-299" value="" style="rounded=0;whiteSpace=wrap;html=1;rotation=90;" parent="1" vertex="1">
          <mxGeometry x="-138.25" y="1659.13" width="78.25" height="9.13" as="geometry" />
        </mxCell>
        <mxCell id="mprhrPH2lkljQKYMVjD2-300" value="" style="triangle;whiteSpace=wrap;html=1;rotation=-180;direction=south;" parent="1" vertex="1">
          <mxGeometry x="-138.25" y="1685" width="80" height="60" as="geometry" />
        </mxCell>
        <mxCell id="mprhrPH2lkljQKYMVjD2-301" value="1:16" style="text;html=1;align=center;verticalAlign=middle;whiteSpace=wrap;rounded=0;" parent="1" vertex="1">
          <mxGeometry x="-128.25" y="1705" width="60" height="30" as="geometry" />
        </mxCell>
        <mxCell id="mprhrPH2lkljQKYMVjD2-302" value="" style="triangle;whiteSpace=wrap;html=1;rotation=-180;direction=south;" parent="1" vertex="1">
          <mxGeometry x="0.8799999999999955" y="1685" width="80" height="60" as="geometry" />
        </mxCell>
        <mxCell id="mprhrPH2lkljQKYMVjD2-303" value="1:16" style="text;html=1;align=center;verticalAlign=middle;whiteSpace=wrap;rounded=0;" parent="1" vertex="1">
          <mxGeometry x="10.879999999999995" y="1705" width="60" height="30" as="geometry" />
        </mxCell>
        <mxCell id="mprhrPH2lkljQKYMVjD2-304" value="" style="triangle;whiteSpace=wrap;html=1;rotation=-180;direction=south;" parent="1" vertex="1">
          <mxGeometry x="142.63" y="1685" width="80" height="60" as="geometry" />
        </mxCell>
        <mxCell id="mprhrPH2lkljQKYMVjD2-305" value="1:16" style="text;html=1;align=center;verticalAlign=middle;whiteSpace=wrap;rounded=0;" parent="1" vertex="1">
          <mxGeometry x="152.63" y="1705" width="60" height="30" as="geometry" />
        </mxCell>
        <mxCell id="mprhrPH2lkljQKYMVjD2-306" value="" style="triangle;whiteSpace=wrap;html=1;rotation=-180;direction=south;" parent="1" vertex="1">
          <mxGeometry x="273.07" y="1685" width="80" height="60" as="geometry" />
        </mxCell>
        <mxCell id="mprhrPH2lkljQKYMVjD2-307" value="1:16" style="text;html=1;align=center;verticalAlign=middle;whiteSpace=wrap;rounded=0;" parent="1" vertex="1">
          <mxGeometry x="283.07" y="1705" width="60" height="30" as="geometry" />
        </mxCell>
        <mxCell id="mprhrPH2lkljQKYMVjD2-308" value="" style="rounded=0;whiteSpace=wrap;html=1;rotation=-180;" parent="1" vertex="1">
          <mxGeometry x="-342.63" y="1624.13" width="78.25" height="9.13" as="geometry" />
        </mxCell>
        <mxCell id="mprhrPH2lkljQKYMVjD2-309" value="" style="triangle;whiteSpace=wrap;html=1;rotation=-180;" parent="1" vertex="1">
          <mxGeometry x="-381.75" y="1570" width="70" height="80" as="geometry" />
        </mxCell>
        <mxCell id="mprhrPH2lkljQKYMVjD2-310" value="5/95" style="text;html=1;align=center;verticalAlign=middle;whiteSpace=wrap;rounded=0;" parent="1" vertex="1">
          <mxGeometry x="-361.75" y="1595" width="60" height="30" as="geometry" />
        </mxCell>
        <mxCell id="mprhrPH2lkljQKYMVjD2-311" value="" style="rounded=0;whiteSpace=wrap;html=1;rotation=90;" parent="1" vertex="1">
          <mxGeometry x="-300" y="1659.13" width="78.25" height="9.13" as="geometry" />
        </mxCell>
        <mxCell id="mprhrPH2lkljQKYMVjD2-312" value="" style="triangle;whiteSpace=wrap;html=1;rotation=-180;direction=south;" parent="1" vertex="1">
          <mxGeometry x="-300" y="1685" width="80" height="60" as="geometry" />
        </mxCell>
        <mxCell id="mprhrPH2lkljQKYMVjD2-313" value="1:16" style="text;html=1;align=center;verticalAlign=middle;whiteSpace=wrap;rounded=0;" parent="1" vertex="1">
          <mxGeometry x="-290" y="1705" width="60" height="30" as="geometry" />
        </mxCell>
        <mxCell id="mprhrPH2lkljQKYMVjD2-363" value="" style="rounded=0;whiteSpace=wrap;html=1;rotation=-180;" parent="1" vertex="1">
          <mxGeometry x="-62.63" y="1415" width="78.25" height="9.13" as="geometry" />
        </mxCell>
        <mxCell id="mprhrPH2lkljQKYMVjD2-364" value="" style="rounded=0;whiteSpace=wrap;html=1;rotation=90;" parent="1" vertex="1">
          <mxGeometry x="-20.000000000000007" y="1450" width="78.25" height="9.13" as="geometry" />
        </mxCell>
        <mxCell id="mprhrPH2lkljQKYMVjD2-365" value="" style="rounded=0;whiteSpace=wrap;html=1;rotation=-180;" parent="1" vertex="1">
          <mxGeometry x="77.37" y="1414.13" width="78.25" height="9.13" as="geometry" />
        </mxCell>
        <mxCell id="mprhrPH2lkljQKYMVjD2-366" value="" style="rounded=0;whiteSpace=wrap;html=1;rotation=-180;" parent="1" vertex="1">
          <mxGeometry x="217.37" y="1415" width="78.25" height="9.13" as="geometry" />
        </mxCell>
        <mxCell id="mprhrPH2lkljQKYMVjD2-367" value="" style="triangle;whiteSpace=wrap;html=1;rotation=-180;" parent="1" vertex="1">
          <mxGeometry x="-102.63" y="1360" width="70" height="80" as="geometry" />
        </mxCell>
        <mxCell id="mprhrPH2lkljQKYMVjD2-368" value="2/98" style="text;html=1;align=center;verticalAlign=middle;whiteSpace=wrap;rounded=0;" parent="1" vertex="1">
          <mxGeometry x="-82.63" y="1385" width="60" height="30" as="geometry" />
        </mxCell>
        <mxCell id="mprhrPH2lkljQKYMVjD2-369" value="" style="triangle;whiteSpace=wrap;html=1;rotation=-180;" parent="1" vertex="1">
          <mxGeometry x="27.369999999999997" y="1360" width="70" height="80" as="geometry" />
        </mxCell>
        <mxCell id="mprhrPH2lkljQKYMVjD2-370" value="2/98" style="text;html=1;align=center;verticalAlign=middle;whiteSpace=wrap;rounded=0;" parent="1" vertex="1">
          <mxGeometry x="47.37" y="1385" width="60" height="30" as="geometry" />
        </mxCell>
        <mxCell id="mprhrPH2lkljQKYMVjD2-371" value="" style="triangle;whiteSpace=wrap;html=1;rotation=-180;" parent="1" vertex="1">
          <mxGeometry x="167.37" y="1360" width="70" height="80" as="geometry" />
        </mxCell>
        <mxCell id="mprhrPH2lkljQKYMVjD2-372" value="2/98" style="text;html=1;align=center;verticalAlign=middle;whiteSpace=wrap;rounded=0;" parent="1" vertex="1">
          <mxGeometry x="187.37" y="1385" width="60" height="30" as="geometry" />
        </mxCell>
        <mxCell id="mprhrPH2lkljQKYMVjD2-373" value="" style="rounded=0;whiteSpace=wrap;html=1;rotation=90;" parent="1" vertex="1">
          <mxGeometry x="255.53000000000003" y="1444.6599999999999" width="69.83" height="9.13" as="geometry" />
        </mxCell>
        <mxCell id="mprhrPH2lkljQKYMVjD2-374" value="" style="rounded=0;whiteSpace=wrap;html=1;rotation=90;" parent="1" vertex="1">
          <mxGeometry x="120" y="1449.13" width="78.25" height="9.13" as="geometry" />
        </mxCell>
        <mxCell id="mprhrPH2lkljQKYMVjD2-375" value="" style="triangle;whiteSpace=wrap;html=1;rotation=-180;direction=south;" parent="1" vertex="1">
          <mxGeometry x="-21.750000000000007" y="1475" width="80" height="60" as="geometry" />
        </mxCell>
        <mxCell id="mprhrPH2lkljQKYMVjD2-376" value="1:16" style="text;html=1;align=center;verticalAlign=middle;whiteSpace=wrap;rounded=0;" parent="1" vertex="1">
          <mxGeometry x="-11.750000000000007" y="1495" width="60" height="30" as="geometry" />
        </mxCell>
        <mxCell id="mprhrPH2lkljQKYMVjD2-377" value="" style="triangle;whiteSpace=wrap;html=1;rotation=-180;direction=south;" parent="1" vertex="1">
          <mxGeometry x="120" y="1475" width="80" height="60" as="geometry" />
        </mxCell>
        <mxCell id="mprhrPH2lkljQKYMVjD2-378" value="1:16" style="text;html=1;align=center;verticalAlign=middle;whiteSpace=wrap;rounded=0;" parent="1" vertex="1">
          <mxGeometry x="130" y="1495" width="60" height="30" as="geometry" />
        </mxCell>
        <mxCell id="mprhrPH2lkljQKYMVjD2-379" value="" style="triangle;whiteSpace=wrap;html=1;rotation=-180;direction=south;" parent="1" vertex="1">
          <mxGeometry x="250.44" y="1475" width="80" height="60" as="geometry" />
        </mxCell>
        <mxCell id="mprhrPH2lkljQKYMVjD2-380" value="1:16" style="text;html=1;align=center;verticalAlign=middle;whiteSpace=wrap;rounded=0;" parent="1" vertex="1">
          <mxGeometry x="260.44" y="1495" width="60" height="30" as="geometry" />
        </mxCell>
        <mxCell id="mprhrPH2lkljQKYMVjD2-382" value="" style="rounded=0;whiteSpace=wrap;html=1;rotation=90;" parent="1" vertex="1">
          <mxGeometry x="561.75" y="1906.74" width="78.25" height="9.13" as="geometry" />
        </mxCell>
        <mxCell id="mprhrPH2lkljQKYMVjD2-383" value="" style="triangle;whiteSpace=wrap;html=1;rotation=-180;direction=south;" parent="1" vertex="1">
          <mxGeometry x="560" y="1931.74" width="80" height="60" as="geometry" />
        </mxCell>
        <mxCell id="mprhrPH2lkljQKYMVjD2-384" value="1:16" style="text;html=1;align=center;verticalAlign=middle;whiteSpace=wrap;rounded=0;" parent="1" vertex="1">
          <mxGeometry x="570" y="1951.7399999999998" width="60" height="30" as="geometry" />
        </mxCell>
        <mxCell id="mprhrPH2lkljQKYMVjD2-385" value="" style="rounded=0;whiteSpace=wrap;html=1;rotation=90;" parent="1" vertex="1">
          <mxGeometry x="430" y="1905" width="78.25" height="9.13" as="geometry" />
        </mxCell>
        <mxCell id="mprhrPH2lkljQKYMVjD2-386" value="" style="rounded=0;whiteSpace=wrap;html=1;rotation=-180;" parent="1" vertex="1">
          <mxGeometry x="460" y="1864.57" width="78.25" height="9.13" as="geometry" />
        </mxCell>
        <mxCell id="mprhrPH2lkljQKYMVjD2-387" value="" style="rounded=0;whiteSpace=wrap;html=1;rotation=-180;" parent="1" vertex="1">
          <mxGeometry x="589.12" y="1866.31" width="78.25" height="9.13" as="geometry" />
        </mxCell>
        <mxCell id="mprhrPH2lkljQKYMVjD2-388" value="" style="rounded=0;whiteSpace=wrap;html=1;" parent="1" vertex="1">
          <mxGeometry x="420" y="1845.87" width="620" height="10" as="geometry" />
        </mxCell>
        <mxCell id="mprhrPH2lkljQKYMVjD2-389" value="" style="triangle;whiteSpace=wrap;html=1;rotation=0;" parent="1" vertex="1">
          <mxGeometry x="520.88" y="1810" width="70" height="80" as="geometry" />
        </mxCell>
        <mxCell id="mprhrPH2lkljQKYMVjD2-390" value="5/95" style="text;html=1;align=center;verticalAlign=middle;whiteSpace=wrap;rounded=0;" parent="1" vertex="1">
          <mxGeometry x="520.88" y="1834.5700000000002" width="60" height="30" as="geometry" />
        </mxCell>
        <mxCell id="mprhrPH2lkljQKYMVjD2-391" value="" style="triangle;whiteSpace=wrap;html=1;rotation=-180;direction=south;" parent="1" vertex="1">
          <mxGeometry x="430" y="1930.87" width="80" height="60" as="geometry" />
        </mxCell>
        <mxCell id="mprhrPH2lkljQKYMVjD2-392" value="1:16" style="text;html=1;align=center;verticalAlign=middle;whiteSpace=wrap;rounded=0;" parent="1" vertex="1">
          <mxGeometry x="440" y="1950.87" width="60" height="30" as="geometry" />
        </mxCell>
        <mxCell id="mprhrPH2lkljQKYMVjD2-393" value="" style="triangle;whiteSpace=wrap;html=1;rotation=0;" parent="1" vertex="1">
          <mxGeometry x="649.12" y="1811.74" width="70" height="80" as="geometry" />
        </mxCell>
        <mxCell id="mprhrPH2lkljQKYMVjD2-394" value="5/95" style="text;html=1;align=center;verticalAlign=middle;whiteSpace=wrap;rounded=0;" parent="1" vertex="1">
          <mxGeometry x="649.12" y="1836.7400000000002" width="60" height="30" as="geometry" />
        </mxCell>
        <mxCell id="mprhrPH2lkljQKYMVjD2-395" value="" style="rounded=0;whiteSpace=wrap;html=1;rotation=90;" parent="1" vertex="1">
          <mxGeometry x="691.75" y="1905" width="78.25" height="9.13" as="geometry" />
        </mxCell>
        <mxCell id="mprhrPH2lkljQKYMVjD2-396" value="" style="triangle;whiteSpace=wrap;html=1;rotation=-180;direction=south;" parent="1" vertex="1">
          <mxGeometry x="690" y="1930" width="80" height="60" as="geometry" />
        </mxCell>
        <mxCell id="mprhrPH2lkljQKYMVjD2-397" value="1:16" style="text;html=1;align=center;verticalAlign=middle;whiteSpace=wrap;rounded=0;" parent="1" vertex="1">
          <mxGeometry x="700" y="1950" width="60" height="30" as="geometry" />
        </mxCell>
        <mxCell id="mprhrPH2lkljQKYMVjD2-398" value="" style="rounded=0;whiteSpace=wrap;html=1;rotation=-180;" parent="1" vertex="1">
          <mxGeometry x="719.12" y="1864.57" width="78.25" height="9.13" as="geometry" />
        </mxCell>
        <mxCell id="mprhrPH2lkljQKYMVjD2-399" value="" style="triangle;whiteSpace=wrap;html=1;rotation=0;" parent="1" vertex="1">
          <mxGeometry x="779.12" y="1810" width="70" height="80" as="geometry" />
        </mxCell>
        <mxCell id="mprhrPH2lkljQKYMVjD2-400" value="5/95" style="text;html=1;align=center;verticalAlign=middle;whiteSpace=wrap;rounded=0;" parent="1" vertex="1">
          <mxGeometry x="779.12" y="1835" width="60" height="30" as="geometry" />
        </mxCell>
        <mxCell id="mprhrPH2lkljQKYMVjD2-401" value="" style="rounded=0;whiteSpace=wrap;html=1;rotation=90;" parent="1" vertex="1">
          <mxGeometry x="828.75" y="1906.74" width="78.25" height="9.13" as="geometry" />
        </mxCell>
        <mxCell id="mprhrPH2lkljQKYMVjD2-402" value="" style="triangle;whiteSpace=wrap;html=1;rotation=-180;direction=south;" parent="1" vertex="1">
          <mxGeometry x="827" y="1931.74" width="80" height="60" as="geometry" />
        </mxCell>
        <mxCell id="mprhrPH2lkljQKYMVjD2-403" value="1:16" style="text;html=1;align=center;verticalAlign=middle;whiteSpace=wrap;rounded=0;" parent="1" vertex="1">
          <mxGeometry x="837" y="1951.7399999999998" width="60" height="30" as="geometry" />
        </mxCell>
        <mxCell id="mprhrPH2lkljQKYMVjD2-404" value="" style="rounded=0;whiteSpace=wrap;html=1;rotation=-180;" parent="1" vertex="1">
          <mxGeometry x="856.12" y="1866.31" width="78.25" height="9.13" as="geometry" />
        </mxCell>
        <mxCell id="mprhrPH2lkljQKYMVjD2-405" value="" style="triangle;whiteSpace=wrap;html=1;rotation=0;" parent="1" vertex="1">
          <mxGeometry x="916.1199999999999" y="1811.74" width="70" height="80" as="geometry" />
        </mxCell>
        <mxCell id="mprhrPH2lkljQKYMVjD2-406" value="5/95" style="text;html=1;align=center;verticalAlign=middle;whiteSpace=wrap;rounded=0;" parent="1" vertex="1">
          <mxGeometry x="916.1199999999999" y="1836.74" width="60" height="30" as="geometry" />
        </mxCell>
        <mxCell id="mprhrPH2lkljQKYMVjD2-407" value="" style="rounded=0;whiteSpace=wrap;html=1;rotation=-180;" parent="1" vertex="1">
          <mxGeometry x="-181.75" y="1864.6200000000001" width="78.25" height="9.13" as="geometry" />
        </mxCell>
        <mxCell id="mprhrPH2lkljQKYMVjD2-408" value="" style="rounded=0;whiteSpace=wrap;html=1;rotation=-180;" parent="1" vertex="1">
          <mxGeometry x="-40.87" y="1865.49" width="78.25" height="9.13" as="geometry" />
        </mxCell>
        <mxCell id="mprhrPH2lkljQKYMVjD2-409" value="" style="rounded=0;whiteSpace=wrap;html=1;rotation=90;" parent="1" vertex="1">
          <mxGeometry x="1.759999999999991" y="1900.49" width="78.25" height="9.13" as="geometry" />
        </mxCell>
        <mxCell id="mprhrPH2lkljQKYMVjD2-410" value="" style="rounded=0;whiteSpace=wrap;html=1;rotation=-180;" parent="1" vertex="1">
          <mxGeometry x="99.13" y="1864.6200000000001" width="78.25" height="9.13" as="geometry" />
        </mxCell>
        <mxCell id="mprhrPH2lkljQKYMVjD2-411" value="" style="rounded=0;whiteSpace=wrap;html=1;rotation=-180;" parent="1" vertex="1">
          <mxGeometry x="239.13" y="1865.49" width="78.25" height="9.13" as="geometry" />
        </mxCell>
        <mxCell id="mprhrPH2lkljQKYMVjD2-412" value="" style="rounded=0;whiteSpace=wrap;html=1;" parent="1" vertex="1">
          <mxGeometry x="-270.87" y="1845.49" width="670" height="10" as="geometry" />
        </mxCell>
        <mxCell id="mprhrPH2lkljQKYMVjD2-413" value="" style="triangle;whiteSpace=wrap;html=1;rotation=-180;" parent="1" vertex="1">
          <mxGeometry x="-220.87" y="1810.49" width="70" height="80" as="geometry" />
        </mxCell>
        <mxCell id="mprhrPH2lkljQKYMVjD2-414" value="5/95" style="text;html=1;align=center;verticalAlign=middle;whiteSpace=wrap;rounded=0;" parent="1" vertex="1">
          <mxGeometry x="-200.87" y="1835.49" width="60" height="30" as="geometry" />
        </mxCell>
        <mxCell id="mprhrPH2lkljQKYMVjD2-415" value="" style="triangle;whiteSpace=wrap;html=1;rotation=-180;" parent="1" vertex="1">
          <mxGeometry x="-80.87" y="1810.49" width="70" height="80" as="geometry" />
        </mxCell>
        <mxCell id="mprhrPH2lkljQKYMVjD2-416" value="5/95" style="text;html=1;align=center;verticalAlign=middle;whiteSpace=wrap;rounded=0;" parent="1" vertex="1">
          <mxGeometry x="-60.87" y="1835.49" width="60" height="30" as="geometry" />
        </mxCell>
        <mxCell id="mprhrPH2lkljQKYMVjD2-417" value="" style="triangle;whiteSpace=wrap;html=1;rotation=-180;" parent="1" vertex="1">
          <mxGeometry x="49.129999999999995" y="1810.49" width="70" height="80" as="geometry" />
        </mxCell>
        <mxCell id="mprhrPH2lkljQKYMVjD2-418" value="5/95" style="text;html=1;align=center;verticalAlign=middle;whiteSpace=wrap;rounded=0;" parent="1" vertex="1">
          <mxGeometry x="69.13" y="1835.49" width="60" height="30" as="geometry" />
        </mxCell>
        <mxCell id="mprhrPH2lkljQKYMVjD2-419" value="" style="triangle;whiteSpace=wrap;html=1;rotation=-180;" parent="1" vertex="1">
          <mxGeometry x="189.13" y="1810.49" width="70" height="80" as="geometry" />
        </mxCell>
        <mxCell id="mprhrPH2lkljQKYMVjD2-420" value="5/95" style="text;html=1;align=center;verticalAlign=middle;whiteSpace=wrap;rounded=0;" parent="1" vertex="1">
          <mxGeometry x="209.13" y="1835.49" width="60" height="30" as="geometry" />
        </mxCell>
        <mxCell id="mprhrPH2lkljQKYMVjD2-421" value="" style="rounded=0;whiteSpace=wrap;html=1;rotation=90;" parent="1" vertex="1">
          <mxGeometry x="277.29" y="1895.1499999999999" width="69.83" height="9.13" as="geometry" />
        </mxCell>
        <mxCell id="mprhrPH2lkljQKYMVjD2-422" value="" style="rounded=0;whiteSpace=wrap;html=1;rotation=90;" parent="1" vertex="1">
          <mxGeometry x="141.76" y="1899.6200000000001" width="78.25" height="9.13" as="geometry" />
        </mxCell>
        <mxCell id="mprhrPH2lkljQKYMVjD2-423" value="" style="rounded=0;whiteSpace=wrap;html=1;rotation=90;" parent="1" vertex="1">
          <mxGeometry x="-139.12" y="1899.6200000000001" width="78.25" height="9.13" as="geometry" />
        </mxCell>
        <mxCell id="mprhrPH2lkljQKYMVjD2-424" value="" style="triangle;whiteSpace=wrap;html=1;rotation=-180;direction=south;" parent="1" vertex="1">
          <mxGeometry x="-139.12" y="1925.49" width="80" height="60" as="geometry" />
        </mxCell>
        <mxCell id="mprhrPH2lkljQKYMVjD2-425" value="1:16" style="text;html=1;align=center;verticalAlign=middle;whiteSpace=wrap;rounded=0;" parent="1" vertex="1">
          <mxGeometry x="-129.12" y="1945.49" width="60" height="30" as="geometry" />
        </mxCell>
        <mxCell id="mprhrPH2lkljQKYMVjD2-426" value="" style="triangle;whiteSpace=wrap;html=1;rotation=-180;direction=south;" parent="1" vertex="1">
          <mxGeometry x="0.009999999999990905" y="1925.49" width="80" height="60" as="geometry" />
        </mxCell>
        <mxCell id="mprhrPH2lkljQKYMVjD2-427" value="1:16" style="text;html=1;align=center;verticalAlign=middle;whiteSpace=wrap;rounded=0;" parent="1" vertex="1">
          <mxGeometry x="10.009999999999991" y="1945.49" width="60" height="30" as="geometry" />
        </mxCell>
        <mxCell id="mprhrPH2lkljQKYMVjD2-428" value="" style="triangle;whiteSpace=wrap;html=1;rotation=-180;direction=south;" parent="1" vertex="1">
          <mxGeometry x="141.76" y="1925.49" width="80" height="60" as="geometry" />
        </mxCell>
        <mxCell id="mprhrPH2lkljQKYMVjD2-429" value="1:16" style="text;html=1;align=center;verticalAlign=middle;whiteSpace=wrap;rounded=0;" parent="1" vertex="1">
          <mxGeometry x="151.76" y="1945.49" width="60" height="30" as="geometry" />
        </mxCell>
        <mxCell id="mprhrPH2lkljQKYMVjD2-430" value="" style="triangle;whiteSpace=wrap;html=1;rotation=-180;direction=south;" parent="1" vertex="1">
          <mxGeometry x="272.2" y="1925.49" width="80" height="60" as="geometry" />
        </mxCell>
        <mxCell id="mprhrPH2lkljQKYMVjD2-431" value="1:16" style="text;html=1;align=center;verticalAlign=middle;whiteSpace=wrap;rounded=0;" parent="1" vertex="1">
          <mxGeometry x="282.2" y="1945.49" width="60" height="30" as="geometry" />
        </mxCell>
        <mxCell id="mprhrPH2lkljQKYMVjD2-432" value="" style="rounded=0;whiteSpace=wrap;html=1;rotation=90;" parent="1" vertex="1">
          <mxGeometry x="561.75" y="2136.74" width="78.25" height="9.13" as="geometry" />
        </mxCell>
        <mxCell id="mprhrPH2lkljQKYMVjD2-433" value="" style="triangle;whiteSpace=wrap;html=1;rotation=-180;direction=south;" parent="1" vertex="1">
          <mxGeometry x="560" y="2161.74" width="80" height="60" as="geometry" />
        </mxCell>
        <mxCell id="mprhrPH2lkljQKYMVjD2-434" value="1:16" style="text;html=1;align=center;verticalAlign=middle;whiteSpace=wrap;rounded=0;" parent="1" vertex="1">
          <mxGeometry x="570" y="2181.74" width="60" height="30" as="geometry" />
        </mxCell>
        <mxCell id="mprhrPH2lkljQKYMVjD2-435" value="" style="rounded=0;whiteSpace=wrap;html=1;rotation=90;" parent="1" vertex="1">
          <mxGeometry x="430" y="2135" width="78.25" height="9.13" as="geometry" />
        </mxCell>
        <mxCell id="mprhrPH2lkljQKYMVjD2-436" value="" style="rounded=0;whiteSpace=wrap;html=1;rotation=-180;" parent="1" vertex="1">
          <mxGeometry x="460" y="2094.5699999999997" width="78.25" height="9.13" as="geometry" />
        </mxCell>
        <mxCell id="mprhrPH2lkljQKYMVjD2-437" value="" style="rounded=0;whiteSpace=wrap;html=1;rotation=-180;" parent="1" vertex="1">
          <mxGeometry x="589.12" y="2096.31" width="78.25" height="9.13" as="geometry" />
        </mxCell>
        <mxCell id="mprhrPH2lkljQKYMVjD2-438" value="" style="rounded=0;whiteSpace=wrap;html=1;" parent="1" vertex="1">
          <mxGeometry x="420" y="2075.87" width="1210" height="10" as="geometry" />
        </mxCell>
        <mxCell id="mprhrPH2lkljQKYMVjD2-439" value="" style="triangle;whiteSpace=wrap;html=1;rotation=0;" parent="1" vertex="1">
          <mxGeometry x="520.88" y="2040" width="70" height="80" as="geometry" />
        </mxCell>
        <mxCell id="mprhrPH2lkljQKYMVjD2-440" value="5/95" style="text;html=1;align=center;verticalAlign=middle;whiteSpace=wrap;rounded=0;" parent="1" vertex="1">
          <mxGeometry x="520.88" y="2064.57" width="60" height="30" as="geometry" />
        </mxCell>
        <mxCell id="mprhrPH2lkljQKYMVjD2-441" value="" style="triangle;whiteSpace=wrap;html=1;rotation=-180;direction=south;" parent="1" vertex="1">
          <mxGeometry x="430" y="2160.87" width="80" height="60" as="geometry" />
        </mxCell>
        <mxCell id="mprhrPH2lkljQKYMVjD2-442" value="1:16" style="text;html=1;align=center;verticalAlign=middle;whiteSpace=wrap;rounded=0;" parent="1" vertex="1">
          <mxGeometry x="440" y="2180.87" width="60" height="30" as="geometry" />
        </mxCell>
        <mxCell id="mprhrPH2lkljQKYMVjD2-443" value="" style="triangle;whiteSpace=wrap;html=1;rotation=0;" parent="1" vertex="1">
          <mxGeometry x="649.12" y="2041.74" width="70" height="80" as="geometry" />
        </mxCell>
        <mxCell id="mprhrPH2lkljQKYMVjD2-444" value="5/95" style="text;html=1;align=center;verticalAlign=middle;whiteSpace=wrap;rounded=0;" parent="1" vertex="1">
          <mxGeometry x="649.12" y="2066.7400000000002" width="60" height="30" as="geometry" />
        </mxCell>
        <mxCell id="mprhrPH2lkljQKYMVjD2-445" value="" style="rounded=0;whiteSpace=wrap;html=1;rotation=90;" parent="1" vertex="1">
          <mxGeometry x="691.75" y="2135" width="78.25" height="9.13" as="geometry" />
        </mxCell>
        <mxCell id="mprhrPH2lkljQKYMVjD2-446" value="" style="triangle;whiteSpace=wrap;html=1;rotation=-180;direction=south;" parent="1" vertex="1">
          <mxGeometry x="690" y="2160" width="80" height="60" as="geometry" />
        </mxCell>
        <mxCell id="mprhrPH2lkljQKYMVjD2-447" value="1:16" style="text;html=1;align=center;verticalAlign=middle;whiteSpace=wrap;rounded=0;" parent="1" vertex="1">
          <mxGeometry x="700" y="2180" width="60" height="30" as="geometry" />
        </mxCell>
        <mxCell id="mprhrPH2lkljQKYMVjD2-448" value="" style="rounded=0;whiteSpace=wrap;html=1;rotation=-180;" parent="1" vertex="1">
          <mxGeometry x="719.12" y="2094.5699999999997" width="78.25" height="9.13" as="geometry" />
        </mxCell>
        <mxCell id="mprhrPH2lkljQKYMVjD2-449" value="" style="triangle;whiteSpace=wrap;html=1;rotation=0;" parent="1" vertex="1">
          <mxGeometry x="779.12" y="2040" width="70" height="80" as="geometry" />
        </mxCell>
        <mxCell id="mprhrPH2lkljQKYMVjD2-450" value="5/95" style="text;html=1;align=center;verticalAlign=middle;whiteSpace=wrap;rounded=0;" parent="1" vertex="1">
          <mxGeometry x="779.12" y="2065" width="60" height="30" as="geometry" />
        </mxCell>
        <mxCell id="mprhrPH2lkljQKYMVjD2-451" value="" style="rounded=0;whiteSpace=wrap;html=1;rotation=90;" parent="1" vertex="1">
          <mxGeometry x="828.75" y="2136.74" width="78.25" height="9.13" as="geometry" />
        </mxCell>
        <mxCell id="mprhrPH2lkljQKYMVjD2-452" value="" style="triangle;whiteSpace=wrap;html=1;rotation=-180;direction=south;" parent="1" vertex="1">
          <mxGeometry x="827" y="2161.74" width="80" height="60" as="geometry" />
        </mxCell>
        <mxCell id="mprhrPH2lkljQKYMVjD2-453" value="1:16" style="text;html=1;align=center;verticalAlign=middle;whiteSpace=wrap;rounded=0;" parent="1" vertex="1">
          <mxGeometry x="837" y="2181.74" width="60" height="30" as="geometry" />
        </mxCell>
        <mxCell id="mprhrPH2lkljQKYMVjD2-454" value="" style="rounded=0;whiteSpace=wrap;html=1;rotation=-180;" parent="1" vertex="1">
          <mxGeometry x="856.12" y="2096.31" width="78.25" height="9.13" as="geometry" />
        </mxCell>
        <mxCell id="mprhrPH2lkljQKYMVjD2-455" value="" style="triangle;whiteSpace=wrap;html=1;rotation=0;" parent="1" vertex="1">
          <mxGeometry x="916.1199999999999" y="2041.74" width="70" height="80" as="geometry" />
        </mxCell>
        <mxCell id="mprhrPH2lkljQKYMVjD2-456" value="5/95" style="text;html=1;align=center;verticalAlign=middle;whiteSpace=wrap;rounded=0;" parent="1" vertex="1">
          <mxGeometry x="916.1199999999999" y="2066.74" width="60" height="30" as="geometry" />
        </mxCell>
        <mxCell id="mprhrPH2lkljQKYMVjD2-457" value="" style="rounded=0;whiteSpace=wrap;html=1;rotation=90;" parent="1" vertex="1">
          <mxGeometry x="1107.87" y="2138.4799999999996" width="78.25" height="9.13" as="geometry" />
        </mxCell>
        <mxCell id="mprhrPH2lkljQKYMVjD2-458" value="" style="triangle;whiteSpace=wrap;html=1;rotation=-180;direction=south;" parent="1" vertex="1">
          <mxGeometry x="1106.12" y="2163.4799999999996" width="80" height="60" as="geometry" />
        </mxCell>
        <mxCell id="mprhrPH2lkljQKYMVjD2-459" value="1:16" style="text;html=1;align=center;verticalAlign=middle;whiteSpace=wrap;rounded=0;" parent="1" vertex="1">
          <mxGeometry x="1116.12" y="2183.4799999999996" width="60" height="30" as="geometry" />
        </mxCell>
        <mxCell id="mprhrPH2lkljQKYMVjD2-460" value="" style="rounded=0;whiteSpace=wrap;html=1;rotation=90;" parent="1" vertex="1">
          <mxGeometry x="976.12" y="2136.74" width="78.25" height="9.13" as="geometry" />
        </mxCell>
        <mxCell id="mprhrPH2lkljQKYMVjD2-461" value="" style="rounded=0;whiteSpace=wrap;html=1;rotation=-180;" parent="1" vertex="1">
          <mxGeometry x="1006.12" y="2096.3099999999995" width="78.25" height="9.13" as="geometry" />
        </mxCell>
        <mxCell id="mprhrPH2lkljQKYMVjD2-462" value="" style="rounded=0;whiteSpace=wrap;html=1;rotation=-180;" parent="1" vertex="1">
          <mxGeometry x="1135.24" y="2098.0499999999997" width="78.25" height="9.13" as="geometry" />
        </mxCell>
        <mxCell id="mprhrPH2lkljQKYMVjD2-463" value="" style="triangle;whiteSpace=wrap;html=1;rotation=0;" parent="1" vertex="1">
          <mxGeometry x="1067" y="2041.74" width="70" height="80" as="geometry" />
        </mxCell>
        <mxCell id="mprhrPH2lkljQKYMVjD2-464" value="5/95" style="text;html=1;align=center;verticalAlign=middle;whiteSpace=wrap;rounded=0;" parent="1" vertex="1">
          <mxGeometry x="1067" y="2066.31" width="60" height="30" as="geometry" />
        </mxCell>
        <mxCell id="mprhrPH2lkljQKYMVjD2-465" value="" style="triangle;whiteSpace=wrap;html=1;rotation=-180;direction=south;" parent="1" vertex="1">
          <mxGeometry x="976.12" y="2162.6099999999997" width="80" height="60" as="geometry" />
        </mxCell>
        <mxCell id="mprhrPH2lkljQKYMVjD2-466" value="1:16" style="text;html=1;align=center;verticalAlign=middle;whiteSpace=wrap;rounded=0;" parent="1" vertex="1">
          <mxGeometry x="986.12" y="2182.6099999999997" width="60" height="30" as="geometry" />
        </mxCell>
        <mxCell id="mprhrPH2lkljQKYMVjD2-467" value="" style="triangle;whiteSpace=wrap;html=1;rotation=0;" parent="1" vertex="1">
          <mxGeometry x="1195.24" y="2043.4799999999998" width="70" height="80" as="geometry" />
        </mxCell>
        <mxCell id="mprhrPH2lkljQKYMVjD2-468" value="5/95" style="text;html=1;align=center;verticalAlign=middle;whiteSpace=wrap;rounded=0;" parent="1" vertex="1">
          <mxGeometry x="1195.24" y="2068.48" width="60" height="30" as="geometry" />
        </mxCell>
        <mxCell id="mprhrPH2lkljQKYMVjD2-469" value="" style="rounded=0;whiteSpace=wrap;html=1;rotation=90;" parent="1" vertex="1">
          <mxGeometry x="1237.87" y="2136.74" width="78.25" height="9.13" as="geometry" />
        </mxCell>
        <mxCell id="mprhrPH2lkljQKYMVjD2-470" value="" style="triangle;whiteSpace=wrap;html=1;rotation=-180;direction=south;" parent="1" vertex="1">
          <mxGeometry x="1236.12" y="2161.74" width="80" height="60" as="geometry" />
        </mxCell>
        <mxCell id="mprhrPH2lkljQKYMVjD2-471" value="1:16" style="text;html=1;align=center;verticalAlign=middle;whiteSpace=wrap;rounded=0;" parent="1" vertex="1">
          <mxGeometry x="1246.12" y="2181.74" width="60" height="30" as="geometry" />
        </mxCell>
        <mxCell id="mprhrPH2lkljQKYMVjD2-472" value="" style="rounded=0;whiteSpace=wrap;html=1;rotation=-180;" parent="1" vertex="1">
          <mxGeometry x="1265.24" y="2096.3099999999995" width="78.25" height="9.13" as="geometry" />
        </mxCell>
        <mxCell id="mprhrPH2lkljQKYMVjD2-473" value="" style="triangle;whiteSpace=wrap;html=1;rotation=0;" parent="1" vertex="1">
          <mxGeometry x="1325.24" y="2041.74" width="70" height="80" as="geometry" />
        </mxCell>
        <mxCell id="mprhrPH2lkljQKYMVjD2-474" value="5/95" style="text;html=1;align=center;verticalAlign=middle;whiteSpace=wrap;rounded=0;" parent="1" vertex="1">
          <mxGeometry x="1325.24" y="2066.74" width="60" height="30" as="geometry" />
        </mxCell>
        <mxCell id="mprhrPH2lkljQKYMVjD2-475" value="" style="rounded=0;whiteSpace=wrap;html=1;rotation=90;" parent="1" vertex="1">
          <mxGeometry x="1374.87" y="2138.4799999999996" width="78.25" height="9.13" as="geometry" />
        </mxCell>
        <mxCell id="mprhrPH2lkljQKYMVjD2-476" value="" style="triangle;whiteSpace=wrap;html=1;rotation=-180;direction=south;" parent="1" vertex="1">
          <mxGeometry x="1373.12" y="2163.4799999999996" width="80" height="60" as="geometry" />
        </mxCell>
        <mxCell id="mprhrPH2lkljQKYMVjD2-477" value="1:16" style="text;html=1;align=center;verticalAlign=middle;whiteSpace=wrap;rounded=0;" parent="1" vertex="1">
          <mxGeometry x="1383.12" y="2183.4799999999996" width="60" height="30" as="geometry" />
        </mxCell>
        <mxCell id="mprhrPH2lkljQKYMVjD2-478" value="" style="rounded=0;whiteSpace=wrap;html=1;rotation=-180;" parent="1" vertex="1">
          <mxGeometry x="1402.24" y="2098.0499999999997" width="78.25" height="9.13" as="geometry" />
        </mxCell>
        <mxCell id="mprhrPH2lkljQKYMVjD2-479" value="" style="triangle;whiteSpace=wrap;html=1;rotation=0;" parent="1" vertex="1">
          <mxGeometry x="1462.2399999999998" y="2043.4799999999998" width="70" height="80" as="geometry" />
        </mxCell>
        <mxCell id="mprhrPH2lkljQKYMVjD2-480" value="5/95" style="text;html=1;align=center;verticalAlign=middle;whiteSpace=wrap;rounded=0;" parent="1" vertex="1">
          <mxGeometry x="1462.2399999999998" y="2068.4799999999996" width="60" height="30" as="geometry" />
        </mxCell>
        <mxCell id="mprhrPH2lkljQKYMVjD2-500" value="" style="rounded=0;whiteSpace=wrap;html=1;" parent="1" vertex="1">
          <mxGeometry x="-157.37" y="2325" width="557.37" height="10" as="geometry" />
        </mxCell>
        <mxCell id="mprhrPH2lkljQKYMVjD2-501" value="" style="rounded=0;whiteSpace=wrap;html=1;rotation=-180;" parent="1" vertex="1">
          <mxGeometry x="-62.63" y="2345" width="78.25" height="9.13" as="geometry" />
        </mxCell>
        <mxCell id="mprhrPH2lkljQKYMVjD2-502" value="" style="rounded=0;whiteSpace=wrap;html=1;rotation=90;" parent="1" vertex="1">
          <mxGeometry x="-20.000000000000007" y="2380" width="78.25" height="9.13" as="geometry" />
        </mxCell>
        <mxCell id="mprhrPH2lkljQKYMVjD2-503" value="" style="rounded=0;whiteSpace=wrap;html=1;rotation=-180;" parent="1" vertex="1">
          <mxGeometry x="77.37" y="2344.13" width="78.25" height="9.13" as="geometry" />
        </mxCell>
        <mxCell id="mprhrPH2lkljQKYMVjD2-504" value="" style="rounded=0;whiteSpace=wrap;html=1;rotation=-180;" parent="1" vertex="1">
          <mxGeometry x="217.37" y="2345" width="78.25" height="9.13" as="geometry" />
        </mxCell>
        <mxCell id="mprhrPH2lkljQKYMVjD2-505" value="" style="triangle;whiteSpace=wrap;html=1;rotation=-180;" parent="1" vertex="1">
          <mxGeometry x="-102.63" y="2290" width="70" height="80" as="geometry" />
        </mxCell>
        <mxCell id="mprhrPH2lkljQKYMVjD2-506" value="2/98" style="text;html=1;align=center;verticalAlign=middle;whiteSpace=wrap;rounded=0;" parent="1" vertex="1">
          <mxGeometry x="-82.63" y="2315" width="60" height="30" as="geometry" />
        </mxCell>
        <mxCell id="mprhrPH2lkljQKYMVjD2-507" value="" style="triangle;whiteSpace=wrap;html=1;rotation=-180;" parent="1" vertex="1">
          <mxGeometry x="27.369999999999997" y="2290" width="70" height="80" as="geometry" />
        </mxCell>
        <mxCell id="mprhrPH2lkljQKYMVjD2-508" value="2/98" style="text;html=1;align=center;verticalAlign=middle;whiteSpace=wrap;rounded=0;" parent="1" vertex="1">
          <mxGeometry x="47.37" y="2315" width="60" height="30" as="geometry" />
        </mxCell>
        <mxCell id="mprhrPH2lkljQKYMVjD2-509" value="" style="triangle;whiteSpace=wrap;html=1;rotation=-180;" parent="1" vertex="1">
          <mxGeometry x="167.37" y="2290" width="70" height="80" as="geometry" />
        </mxCell>
        <mxCell id="mprhrPH2lkljQKYMVjD2-510" value="2/98" style="text;html=1;align=center;verticalAlign=middle;whiteSpace=wrap;rounded=0;" parent="1" vertex="1">
          <mxGeometry x="187.37" y="2315" width="60" height="30" as="geometry" />
        </mxCell>
        <mxCell id="mprhrPH2lkljQKYMVjD2-511" value="" style="rounded=0;whiteSpace=wrap;html=1;rotation=90;" parent="1" vertex="1">
          <mxGeometry x="255.53000000000003" y="2374.66" width="69.83" height="9.13" as="geometry" />
        </mxCell>
        <mxCell id="mprhrPH2lkljQKYMVjD2-512" value="" style="rounded=0;whiteSpace=wrap;html=1;rotation=90;" parent="1" vertex="1">
          <mxGeometry x="120" y="2379.13" width="78.25" height="9.13" as="geometry" />
        </mxCell>
        <mxCell id="mprhrPH2lkljQKYMVjD2-513" value="" style="triangle;whiteSpace=wrap;html=1;rotation=-180;direction=south;" parent="1" vertex="1">
          <mxGeometry x="-21.750000000000007" y="2405" width="80" height="60" as="geometry" />
        </mxCell>
        <mxCell id="mprhrPH2lkljQKYMVjD2-514" value="1:16" style="text;html=1;align=center;verticalAlign=middle;whiteSpace=wrap;rounded=0;" parent="1" vertex="1">
          <mxGeometry x="-11.750000000000007" y="2425" width="60" height="30" as="geometry" />
        </mxCell>
        <mxCell id="mprhrPH2lkljQKYMVjD2-515" value="" style="triangle;whiteSpace=wrap;html=1;rotation=-180;direction=south;" parent="1" vertex="1">
          <mxGeometry x="120" y="2405" width="80" height="60" as="geometry" />
        </mxCell>
        <mxCell id="mprhrPH2lkljQKYMVjD2-516" value="1:16" style="text;html=1;align=center;verticalAlign=middle;whiteSpace=wrap;rounded=0;" parent="1" vertex="1">
          <mxGeometry x="130" y="2425" width="60" height="30" as="geometry" />
        </mxCell>
        <mxCell id="mprhrPH2lkljQKYMVjD2-517" value="" style="triangle;whiteSpace=wrap;html=1;rotation=-180;direction=south;" parent="1" vertex="1">
          <mxGeometry x="250.44" y="2405" width="80" height="60" as="geometry" />
        </mxCell>
        <mxCell id="mprhrPH2lkljQKYMVjD2-518" value="1:16" style="text;html=1;align=center;verticalAlign=middle;whiteSpace=wrap;rounded=0;" parent="1" vertex="1">
          <mxGeometry x="260.44" y="2425" width="60" height="30" as="geometry" />
        </mxCell>
        <mxCell id="mprhrPH2lkljQKYMVjD2-519" value="" style="rounded=0;whiteSpace=wrap;html=1;rotation=90;" parent="1" vertex="1">
          <mxGeometry x="561.75" y="2386.74" width="78.25" height="9.13" as="geometry" />
        </mxCell>
        <mxCell id="mprhrPH2lkljQKYMVjD2-520" value="" style="triangle;whiteSpace=wrap;html=1;rotation=-180;direction=south;" parent="1" vertex="1">
          <mxGeometry x="560" y="2411.74" width="80" height="60" as="geometry" />
        </mxCell>
        <mxCell id="mprhrPH2lkljQKYMVjD2-521" value="1:16" style="text;html=1;align=center;verticalAlign=middle;whiteSpace=wrap;rounded=0;" parent="1" vertex="1">
          <mxGeometry x="570" y="2431.74" width="60" height="30" as="geometry" />
        </mxCell>
        <mxCell id="mprhrPH2lkljQKYMVjD2-522" value="" style="rounded=0;whiteSpace=wrap;html=1;rotation=90;" parent="1" vertex="1">
          <mxGeometry x="430" y="2385" width="78.25" height="9.13" as="geometry" />
        </mxCell>
        <mxCell id="mprhrPH2lkljQKYMVjD2-523" value="" style="rounded=0;whiteSpace=wrap;html=1;rotation=-180;" parent="1" vertex="1">
          <mxGeometry x="460" y="2344.5699999999997" width="78.25" height="9.13" as="geometry" />
        </mxCell>
        <mxCell id="mprhrPH2lkljQKYMVjD2-524" value="" style="rounded=0;whiteSpace=wrap;html=1;rotation=-180;" parent="1" vertex="1">
          <mxGeometry x="589.12" y="2346.31" width="78.25" height="9.13" as="geometry" />
        </mxCell>
        <mxCell id="mprhrPH2lkljQKYMVjD2-525" value="" style="rounded=0;whiteSpace=wrap;html=1;" parent="1" vertex="1">
          <mxGeometry x="420" y="2325.87" width="800" height="10" as="geometry" />
        </mxCell>
        <mxCell id="mprhrPH2lkljQKYMVjD2-526" value="" style="triangle;whiteSpace=wrap;html=1;rotation=0;" parent="1" vertex="1">
          <mxGeometry x="520.88" y="2290" width="70" height="80" as="geometry" />
        </mxCell>
        <mxCell id="mprhrPH2lkljQKYMVjD2-527" value="5/95" style="text;html=1;align=center;verticalAlign=middle;whiteSpace=wrap;rounded=0;" parent="1" vertex="1">
          <mxGeometry x="520.88" y="2314.57" width="60" height="30" as="geometry" />
        </mxCell>
        <mxCell id="mprhrPH2lkljQKYMVjD2-528" value="" style="triangle;whiteSpace=wrap;html=1;rotation=-180;direction=south;" parent="1" vertex="1">
          <mxGeometry x="430" y="2410.87" width="80" height="60" as="geometry" />
        </mxCell>
        <mxCell id="mprhrPH2lkljQKYMVjD2-529" value="1:16" style="text;html=1;align=center;verticalAlign=middle;whiteSpace=wrap;rounded=0;" parent="1" vertex="1">
          <mxGeometry x="440" y="2430.87" width="60" height="30" as="geometry" />
        </mxCell>
        <mxCell id="mprhrPH2lkljQKYMVjD2-530" value="" style="triangle;whiteSpace=wrap;html=1;rotation=0;" parent="1" vertex="1">
          <mxGeometry x="649.12" y="2291.74" width="70" height="80" as="geometry" />
        </mxCell>
        <mxCell id="mprhrPH2lkljQKYMVjD2-531" value="5/95" style="text;html=1;align=center;verticalAlign=middle;whiteSpace=wrap;rounded=0;" parent="1" vertex="1">
          <mxGeometry x="649.12" y="2316.7400000000002" width="60" height="30" as="geometry" />
        </mxCell>
        <mxCell id="mprhrPH2lkljQKYMVjD2-532" value="" style="rounded=0;whiteSpace=wrap;html=1;rotation=90;" parent="1" vertex="1">
          <mxGeometry x="691.75" y="2385" width="78.25" height="9.13" as="geometry" />
        </mxCell>
        <mxCell id="mprhrPH2lkljQKYMVjD2-533" value="" style="triangle;whiteSpace=wrap;html=1;rotation=-180;direction=south;" parent="1" vertex="1">
          <mxGeometry x="690" y="2410" width="80" height="60" as="geometry" />
        </mxCell>
        <mxCell id="mprhrPH2lkljQKYMVjD2-534" value="1:16" style="text;html=1;align=center;verticalAlign=middle;whiteSpace=wrap;rounded=0;" parent="1" vertex="1">
          <mxGeometry x="700" y="2430" width="60" height="30" as="geometry" />
        </mxCell>
        <mxCell id="mprhrPH2lkljQKYMVjD2-535" value="" style="rounded=0;whiteSpace=wrap;html=1;rotation=-180;" parent="1" vertex="1">
          <mxGeometry x="719.12" y="2344.5699999999997" width="78.25" height="9.13" as="geometry" />
        </mxCell>
        <mxCell id="mprhrPH2lkljQKYMVjD2-536" value="" style="triangle;whiteSpace=wrap;html=1;rotation=0;" parent="1" vertex="1">
          <mxGeometry x="779.12" y="2290" width="70" height="80" as="geometry" />
        </mxCell>
        <mxCell id="mprhrPH2lkljQKYMVjD2-537" value="5/95" style="text;html=1;align=center;verticalAlign=middle;whiteSpace=wrap;rounded=0;" parent="1" vertex="1">
          <mxGeometry x="779.12" y="2315" width="60" height="30" as="geometry" />
        </mxCell>
        <mxCell id="mprhrPH2lkljQKYMVjD2-538" value="" style="rounded=0;whiteSpace=wrap;html=1;rotation=90;" parent="1" vertex="1">
          <mxGeometry x="828.75" y="2386.74" width="78.25" height="9.13" as="geometry" />
        </mxCell>
        <mxCell id="mprhrPH2lkljQKYMVjD2-539" value="" style="triangle;whiteSpace=wrap;html=1;rotation=-180;direction=south;" parent="1" vertex="1">
          <mxGeometry x="827" y="2411.74" width="80" height="60" as="geometry" />
        </mxCell>
        <mxCell id="mprhrPH2lkljQKYMVjD2-540" value="1:16" style="text;html=1;align=center;verticalAlign=middle;whiteSpace=wrap;rounded=0;" parent="1" vertex="1">
          <mxGeometry x="837" y="2431.74" width="60" height="30" as="geometry" />
        </mxCell>
        <mxCell id="mprhrPH2lkljQKYMVjD2-541" value="" style="rounded=0;whiteSpace=wrap;html=1;rotation=-180;" parent="1" vertex="1">
          <mxGeometry x="856.12" y="2346.31" width="78.25" height="9.13" as="geometry" />
        </mxCell>
        <mxCell id="mprhrPH2lkljQKYMVjD2-542" value="" style="triangle;whiteSpace=wrap;html=1;rotation=0;" parent="1" vertex="1">
          <mxGeometry x="916.1199999999999" y="2291.74" width="70" height="80" as="geometry" />
        </mxCell>
        <mxCell id="mprhrPH2lkljQKYMVjD2-543" value="5/95" style="text;html=1;align=center;verticalAlign=middle;whiteSpace=wrap;rounded=0;" parent="1" vertex="1">
          <mxGeometry x="916.1199999999999" y="2316.74" width="60" height="30" as="geometry" />
        </mxCell>
        <mxCell id="mprhrPH2lkljQKYMVjD2-546" value="" style="rounded=0;whiteSpace=wrap;html=1;rotation=90;" parent="1" vertex="1">
          <mxGeometry x="988.74" y="2386.74" width="78.25" height="9.13" as="geometry" />
        </mxCell>
        <mxCell id="mprhrPH2lkljQKYMVjD2-547" value="" style="triangle;whiteSpace=wrap;html=1;rotation=-180;direction=south;" parent="1" vertex="1">
          <mxGeometry x="986.99" y="2411.74" width="80" height="60" as="geometry" />
        </mxCell>
        <mxCell id="mprhrPH2lkljQKYMVjD2-548" value="1:16" style="text;html=1;align=center;verticalAlign=middle;whiteSpace=wrap;rounded=0;" parent="1" vertex="1">
          <mxGeometry x="996.99" y="2431.74" width="60" height="30" as="geometry" />
        </mxCell>
        <mxCell id="mprhrPH2lkljQKYMVjD2-549" value="" style="rounded=0;whiteSpace=wrap;html=1;rotation=-180;" parent="1" vertex="1">
          <mxGeometry x="1016.11" y="2346.31" width="78.25" height="9.13" as="geometry" />
        </mxCell>
        <mxCell id="mprhrPH2lkljQKYMVjD2-550" value="" style="triangle;whiteSpace=wrap;html=1;rotation=0;" parent="1" vertex="1">
          <mxGeometry x="1076.11" y="2291.74" width="70" height="80" as="geometry" />
        </mxCell>
        <mxCell id="mprhrPH2lkljQKYMVjD2-551" value="5/95" style="text;html=1;align=center;verticalAlign=middle;whiteSpace=wrap;rounded=0;" parent="1" vertex="1">
          <mxGeometry x="1076.11" y="2316.74" width="60" height="30" as="geometry" />
        </mxCell>
        <mxCell id="mprhrPH2lkljQKYMVjD2-583" value="" style="rounded=0;whiteSpace=wrap;html=1;rotation=-180;" parent="1" vertex="1">
          <mxGeometry x="-180.88" y="2644.13" width="78.25" height="9.13" as="geometry" />
        </mxCell>
        <mxCell id="mprhrPH2lkljQKYMVjD2-584" value="" style="rounded=0;whiteSpace=wrap;html=1;rotation=-180;" parent="1" vertex="1">
          <mxGeometry x="-40" y="2645" width="78.25" height="9.13" as="geometry" />
        </mxCell>
        <mxCell id="mprhrPH2lkljQKYMVjD2-585" value="" style="rounded=0;whiteSpace=wrap;html=1;rotation=90;" parent="1" vertex="1">
          <mxGeometry x="2.6299999999999955" y="2680" width="78.25" height="9.13" as="geometry" />
        </mxCell>
        <mxCell id="mprhrPH2lkljQKYMVjD2-586" value="" style="rounded=0;whiteSpace=wrap;html=1;rotation=-180;" parent="1" vertex="1">
          <mxGeometry x="98.25" y="2644.13" width="80" height="9.13" as="geometry" />
        </mxCell>
        <mxCell id="mprhrPH2lkljQKYMVjD2-587" value="" style="rounded=0;whiteSpace=wrap;html=1;rotation=-180;" parent="1" vertex="1">
          <mxGeometry x="240" y="2645" width="78.25" height="9.13" as="geometry" />
        </mxCell>
        <mxCell id="mprhrPH2lkljQKYMVjD2-588" value="" style="rounded=0;whiteSpace=wrap;html=1;" parent="1" vertex="1">
          <mxGeometry x="-640" y="2625" width="1040" height="10" as="geometry" />
        </mxCell>
        <mxCell id="mprhrPH2lkljQKYMVjD2-589" value="" style="triangle;whiteSpace=wrap;html=1;rotation=-180;" parent="1" vertex="1">
          <mxGeometry x="-220" y="2590" width="70" height="80" as="geometry" />
        </mxCell>
        <mxCell id="mprhrPH2lkljQKYMVjD2-590" value="5/95" style="text;html=1;align=center;verticalAlign=middle;whiteSpace=wrap;rounded=0;" parent="1" vertex="1">
          <mxGeometry x="-200" y="2615" width="60" height="30" as="geometry" />
        </mxCell>
        <mxCell id="mprhrPH2lkljQKYMVjD2-591" value="" style="triangle;whiteSpace=wrap;html=1;rotation=-180;" parent="1" vertex="1">
          <mxGeometry x="-80" y="2590" width="70" height="80" as="geometry" />
        </mxCell>
        <mxCell id="mprhrPH2lkljQKYMVjD2-592" value="5/95" style="text;html=1;align=center;verticalAlign=middle;whiteSpace=wrap;rounded=0;" parent="1" vertex="1">
          <mxGeometry x="-60" y="2615" width="60" height="30" as="geometry" />
        </mxCell>
        <mxCell id="mprhrPH2lkljQKYMVjD2-593" value="" style="triangle;whiteSpace=wrap;html=1;rotation=-180;" parent="1" vertex="1">
          <mxGeometry x="50" y="2590" width="70" height="80" as="geometry" />
        </mxCell>
        <mxCell id="mprhrPH2lkljQKYMVjD2-594" value="5/95" style="text;html=1;align=center;verticalAlign=middle;whiteSpace=wrap;rounded=0;" parent="1" vertex="1">
          <mxGeometry x="70" y="2615" width="60" height="30" as="geometry" />
        </mxCell>
        <mxCell id="mprhrPH2lkljQKYMVjD2-595" value="" style="triangle;whiteSpace=wrap;html=1;rotation=-180;" parent="1" vertex="1">
          <mxGeometry x="190" y="2590" width="70" height="80" as="geometry" />
        </mxCell>
        <mxCell id="mprhrPH2lkljQKYMVjD2-596" value="5/95" style="text;html=1;align=center;verticalAlign=middle;whiteSpace=wrap;rounded=0;" parent="1" vertex="1">
          <mxGeometry x="210" y="2615" width="60" height="30" as="geometry" />
        </mxCell>
        <mxCell id="mprhrPH2lkljQKYMVjD2-597" value="" style="rounded=0;whiteSpace=wrap;html=1;rotation=90;" parent="1" vertex="1">
          <mxGeometry x="278.16" y="2674.66" width="69.83" height="9.13" as="geometry" />
        </mxCell>
        <mxCell id="mprhrPH2lkljQKYMVjD2-598" value="" style="rounded=0;whiteSpace=wrap;html=1;rotation=90;" parent="1" vertex="1">
          <mxGeometry x="142.63" y="2679.13" width="78.25" height="9.13" as="geometry" />
        </mxCell>
        <mxCell id="mprhrPH2lkljQKYMVjD2-599" value="" style="rounded=0;whiteSpace=wrap;html=1;rotation=90;" parent="1" vertex="1">
          <mxGeometry x="-138.25" y="2679.13" width="78.25" height="9.13" as="geometry" />
        </mxCell>
        <mxCell id="mprhrPH2lkljQKYMVjD2-600" value="" style="triangle;whiteSpace=wrap;html=1;rotation=-180;direction=south;" parent="1" vertex="1">
          <mxGeometry x="-138.25" y="2705" width="80" height="60" as="geometry" />
        </mxCell>
        <mxCell id="mprhrPH2lkljQKYMVjD2-601" value="1:16" style="text;html=1;align=center;verticalAlign=middle;whiteSpace=wrap;rounded=0;" parent="1" vertex="1">
          <mxGeometry x="-128.25" y="2725" width="60" height="30" as="geometry" />
        </mxCell>
        <mxCell id="mprhrPH2lkljQKYMVjD2-602" value="" style="triangle;whiteSpace=wrap;html=1;rotation=-180;direction=south;" parent="1" vertex="1">
          <mxGeometry x="0.8799999999999955" y="2705" width="80" height="60" as="geometry" />
        </mxCell>
        <mxCell id="mprhrPH2lkljQKYMVjD2-603" value="1:16" style="text;html=1;align=center;verticalAlign=middle;whiteSpace=wrap;rounded=0;" parent="1" vertex="1">
          <mxGeometry x="10.879999999999995" y="2725" width="60" height="30" as="geometry" />
        </mxCell>
        <mxCell id="mprhrPH2lkljQKYMVjD2-604" value="" style="triangle;whiteSpace=wrap;html=1;rotation=-180;direction=south;" parent="1" vertex="1">
          <mxGeometry x="142.63" y="2705" width="80" height="60" as="geometry" />
        </mxCell>
        <mxCell id="mprhrPH2lkljQKYMVjD2-605" value="1:16" style="text;html=1;align=center;verticalAlign=middle;whiteSpace=wrap;rounded=0;" parent="1" vertex="1">
          <mxGeometry x="152.63" y="2725" width="60" height="30" as="geometry" />
        </mxCell>
        <mxCell id="mprhrPH2lkljQKYMVjD2-606" value="" style="triangle;whiteSpace=wrap;html=1;rotation=-180;direction=south;" parent="1" vertex="1">
          <mxGeometry x="273.07" y="2705" width="80" height="60" as="geometry" />
        </mxCell>
        <mxCell id="mprhrPH2lkljQKYMVjD2-607" value="1:16" style="text;html=1;align=center;verticalAlign=middle;whiteSpace=wrap;rounded=0;" parent="1" vertex="1">
          <mxGeometry x="283.07" y="2725" width="60" height="30" as="geometry" />
        </mxCell>
        <mxCell id="mprhrPH2lkljQKYMVjD2-608" value="" style="rounded=0;whiteSpace=wrap;html=1;rotation=-180;" parent="1" vertex="1">
          <mxGeometry x="-342.63" y="2644.13" width="78.25" height="9.13" as="geometry" />
        </mxCell>
        <mxCell id="mprhrPH2lkljQKYMVjD2-609" value="" style="triangle;whiteSpace=wrap;html=1;rotation=-180;" parent="1" vertex="1">
          <mxGeometry x="-381.75" y="2590" width="70" height="80" as="geometry" />
        </mxCell>
        <mxCell id="mprhrPH2lkljQKYMVjD2-610" value="5/95" style="text;html=1;align=center;verticalAlign=middle;whiteSpace=wrap;rounded=0;" parent="1" vertex="1">
          <mxGeometry x="-361.75" y="2615" width="60" height="30" as="geometry" />
        </mxCell>
        <mxCell id="mprhrPH2lkljQKYMVjD2-611" value="" style="rounded=0;whiteSpace=wrap;html=1;rotation=90;" parent="1" vertex="1">
          <mxGeometry x="-300" y="2679.13" width="78.25" height="9.13" as="geometry" />
        </mxCell>
        <mxCell id="mprhrPH2lkljQKYMVjD2-612" value="" style="triangle;whiteSpace=wrap;html=1;rotation=-180;direction=south;" parent="1" vertex="1">
          <mxGeometry x="-300" y="2705" width="80" height="60" as="geometry" />
        </mxCell>
        <mxCell id="mprhrPH2lkljQKYMVjD2-613" value="1:16" style="text;html=1;align=center;verticalAlign=middle;whiteSpace=wrap;rounded=0;" parent="1" vertex="1">
          <mxGeometry x="-290" y="2725" width="60" height="30" as="geometry" />
        </mxCell>
        <mxCell id="mprhrPH2lkljQKYMVjD2-615" value="" style="rounded=0;whiteSpace=wrap;html=1;rotation=-180;" parent="1" vertex="1">
          <mxGeometry x="-504.38" y="2644.13" width="78.25" height="9.13" as="geometry" />
        </mxCell>
        <mxCell id="mprhrPH2lkljQKYMVjD2-616" value="" style="triangle;whiteSpace=wrap;html=1;rotation=-180;" parent="1" vertex="1">
          <mxGeometry x="-543.5" y="2590" width="70" height="80" as="geometry" />
        </mxCell>
        <mxCell id="mprhrPH2lkljQKYMVjD2-617" value="5/95" style="text;html=1;align=center;verticalAlign=middle;whiteSpace=wrap;rounded=0;" parent="1" vertex="1">
          <mxGeometry x="-523.5" y="2615" width="60" height="30" as="geometry" />
        </mxCell>
        <mxCell id="mprhrPH2lkljQKYMVjD2-618" value="" style="rounded=0;whiteSpace=wrap;html=1;rotation=90;" parent="1" vertex="1">
          <mxGeometry x="-461.75" y="2679.13" width="78.25" height="9.13" as="geometry" />
        </mxCell>
        <mxCell id="mprhrPH2lkljQKYMVjD2-619" value="" style="triangle;whiteSpace=wrap;html=1;rotation=-180;direction=south;" parent="1" vertex="1">
          <mxGeometry x="-461.75" y="2705" width="80" height="60" as="geometry" />
        </mxCell>
        <mxCell id="mprhrPH2lkljQKYMVjD2-620" value="1:16" style="text;html=1;align=center;verticalAlign=middle;whiteSpace=wrap;rounded=0;" parent="1" vertex="1">
          <mxGeometry x="-451.75" y="2725" width="60" height="30" as="geometry" />
        </mxCell>
        <mxCell id="mprhrPH2lkljQKYMVjD2-702" value="" style="rounded=0;whiteSpace=wrap;html=1;rotation=90;" parent="1" vertex="1">
          <mxGeometry x="562.62" y="2686.74" width="78.25" height="9.13" as="geometry" />
        </mxCell>
        <mxCell id="mprhrPH2lkljQKYMVjD2-703" value="" style="triangle;whiteSpace=wrap;html=1;rotation=-180;direction=south;" parent="1" vertex="1">
          <mxGeometry x="560.87" y="2711.74" width="80" height="60" as="geometry" />
        </mxCell>
        <mxCell id="mprhrPH2lkljQKYMVjD2-704" value="1:16" style="text;html=1;align=center;verticalAlign=middle;whiteSpace=wrap;rounded=0;" parent="1" vertex="1">
          <mxGeometry x="570.87" y="2731.74" width="60" height="30" as="geometry" />
        </mxCell>
        <mxCell id="mprhrPH2lkljQKYMVjD2-705" value="" style="rounded=0;whiteSpace=wrap;html=1;rotation=90;" parent="1" vertex="1">
          <mxGeometry x="430.87" y="2685" width="78.25" height="9.13" as="geometry" />
        </mxCell>
        <mxCell id="mprhrPH2lkljQKYMVjD2-706" value="" style="rounded=0;whiteSpace=wrap;html=1;rotation=-180;" parent="1" vertex="1">
          <mxGeometry x="460.87" y="2644.5699999999997" width="78.25" height="9.13" as="geometry" />
        </mxCell>
        <mxCell id="mprhrPH2lkljQKYMVjD2-707" value="" style="rounded=0;whiteSpace=wrap;html=1;rotation=-180;" parent="1" vertex="1">
          <mxGeometry x="589.99" y="2646.31" width="78.25" height="9.13" as="geometry" />
        </mxCell>
        <mxCell id="mprhrPH2lkljQKYMVjD2-708" value="" style="rounded=0;whiteSpace=wrap;html=1;" parent="1" vertex="1">
          <mxGeometry x="420.87" y="2625.87" width="409.13" height="10" as="geometry" />
        </mxCell>
        <mxCell id="mprhrPH2lkljQKYMVjD2-709" value="" style="triangle;whiteSpace=wrap;html=1;rotation=0;" parent="1" vertex="1">
          <mxGeometry x="521.75" y="2590" width="70" height="80" as="geometry" />
        </mxCell>
        <mxCell id="mprhrPH2lkljQKYMVjD2-710" value="10/90" style="text;html=1;align=center;verticalAlign=middle;whiteSpace=wrap;rounded=0;" parent="1" vertex="1">
          <mxGeometry x="521.75" y="2614.57" width="60" height="30" as="geometry" />
        </mxCell>
        <mxCell id="mprhrPH2lkljQKYMVjD2-711" value="" style="triangle;whiteSpace=wrap;html=1;rotation=-180;direction=south;" parent="1" vertex="1">
          <mxGeometry x="430.87" y="2710.87" width="80" height="60" as="geometry" />
        </mxCell>
        <mxCell id="mprhrPH2lkljQKYMVjD2-712" value="1:16" style="text;html=1;align=center;verticalAlign=middle;whiteSpace=wrap;rounded=0;" parent="1" vertex="1">
          <mxGeometry x="440.87" y="2730.87" width="60" height="30" as="geometry" />
        </mxCell>
        <mxCell id="mprhrPH2lkljQKYMVjD2-713" value="" style="triangle;whiteSpace=wrap;html=1;rotation=0;" parent="1" vertex="1">
          <mxGeometry x="649.99" y="2591.74" width="70" height="80" as="geometry" />
        </mxCell>
        <mxCell id="mprhrPH2lkljQKYMVjD2-714" value="10/90" style="text;html=1;align=center;verticalAlign=middle;whiteSpace=wrap;rounded=0;" parent="1" vertex="1">
          <mxGeometry x="649.99" y="2616.7400000000002" width="60" height="30" as="geometry" />
        </mxCell>
        <mxCell id="mprhrPH2lkljQKYMVjD2-734" value="" style="rounded=0;whiteSpace=wrap;html=1;rotation=90;" parent="1" vertex="1">
          <mxGeometry x="562.62" y="2956.74" width="78.25" height="9.13" as="geometry" />
        </mxCell>
        <mxCell id="mprhrPH2lkljQKYMVjD2-735" value="" style="triangle;whiteSpace=wrap;html=1;rotation=-180;direction=south;" parent="1" vertex="1">
          <mxGeometry x="560.87" y="2981.74" width="80" height="60" as="geometry" />
        </mxCell>
        <mxCell id="mprhrPH2lkljQKYMVjD2-736" value="1:16" style="text;html=1;align=center;verticalAlign=middle;whiteSpace=wrap;rounded=0;" parent="1" vertex="1">
          <mxGeometry x="570.87" y="3001.74" width="60" height="30" as="geometry" />
        </mxCell>
        <mxCell id="mprhrPH2lkljQKYMVjD2-737" value="" style="rounded=0;whiteSpace=wrap;html=1;rotation=90;" parent="1" vertex="1">
          <mxGeometry x="430.87" y="2955" width="78.25" height="9.13" as="geometry" />
        </mxCell>
        <mxCell id="mprhrPH2lkljQKYMVjD2-738" value="" style="rounded=0;whiteSpace=wrap;html=1;rotation=-180;" parent="1" vertex="1">
          <mxGeometry x="460.87" y="2914.5699999999997" width="78.25" height="9.13" as="geometry" />
        </mxCell>
        <mxCell id="mprhrPH2lkljQKYMVjD2-739" value="" style="rounded=0;whiteSpace=wrap;html=1;rotation=-180;" parent="1" vertex="1">
          <mxGeometry x="589.99" y="2916.31" width="78.25" height="9.13" as="geometry" />
        </mxCell>
        <mxCell id="mprhrPH2lkljQKYMVjD2-740" value="" style="rounded=0;whiteSpace=wrap;html=1;" parent="1" vertex="1">
          <mxGeometry x="420.87" y="2895.87" width="620" height="10" as="geometry" />
        </mxCell>
        <mxCell id="mprhrPH2lkljQKYMVjD2-741" value="" style="triangle;whiteSpace=wrap;html=1;rotation=0;" parent="1" vertex="1">
          <mxGeometry x="521.75" y="2860" width="70" height="80" as="geometry" />
        </mxCell>
        <mxCell id="mprhrPH2lkljQKYMVjD2-742" value="5/95" style="text;html=1;align=center;verticalAlign=middle;whiteSpace=wrap;rounded=0;" parent="1" vertex="1">
          <mxGeometry x="521.75" y="2884.57" width="60" height="30" as="geometry" />
        </mxCell>
        <mxCell id="mprhrPH2lkljQKYMVjD2-743" value="" style="triangle;whiteSpace=wrap;html=1;rotation=-180;direction=south;" parent="1" vertex="1">
          <mxGeometry x="430.87" y="2980.87" width="80" height="60" as="geometry" />
        </mxCell>
        <mxCell id="mprhrPH2lkljQKYMVjD2-744" value="1:16" style="text;html=1;align=center;verticalAlign=middle;whiteSpace=wrap;rounded=0;" parent="1" vertex="1">
          <mxGeometry x="440.87" y="3000.87" width="60" height="30" as="geometry" />
        </mxCell>
        <mxCell id="mprhrPH2lkljQKYMVjD2-745" value="" style="triangle;whiteSpace=wrap;html=1;rotation=0;" parent="1" vertex="1">
          <mxGeometry x="649.99" y="2861.74" width="70" height="80" as="geometry" />
        </mxCell>
        <mxCell id="mprhrPH2lkljQKYMVjD2-746" value="5/95" style="text;html=1;align=center;verticalAlign=middle;whiteSpace=wrap;rounded=0;" parent="1" vertex="1">
          <mxGeometry x="649.99" y="2886.7400000000002" width="60" height="30" as="geometry" />
        </mxCell>
        <mxCell id="mprhrPH2lkljQKYMVjD2-747" value="" style="rounded=0;whiteSpace=wrap;html=1;rotation=90;" parent="1" vertex="1">
          <mxGeometry x="692.62" y="2955" width="78.25" height="9.13" as="geometry" />
        </mxCell>
        <mxCell id="mprhrPH2lkljQKYMVjD2-748" value="" style="triangle;whiteSpace=wrap;html=1;rotation=-180;direction=south;" parent="1" vertex="1">
          <mxGeometry x="690.87" y="2980" width="80" height="60" as="geometry" />
        </mxCell>
        <mxCell id="mprhrPH2lkljQKYMVjD2-749" value="1:16" style="text;html=1;align=center;verticalAlign=middle;whiteSpace=wrap;rounded=0;" parent="1" vertex="1">
          <mxGeometry x="700.87" y="3000" width="60" height="30" as="geometry" />
        </mxCell>
        <mxCell id="mprhrPH2lkljQKYMVjD2-750" value="" style="rounded=0;whiteSpace=wrap;html=1;rotation=-180;" parent="1" vertex="1">
          <mxGeometry x="719.99" y="2914.5699999999997" width="78.25" height="9.13" as="geometry" />
        </mxCell>
        <mxCell id="mprhrPH2lkljQKYMVjD2-751" value="" style="triangle;whiteSpace=wrap;html=1;rotation=0;" parent="1" vertex="1">
          <mxGeometry x="779.99" y="2860" width="70" height="80" as="geometry" />
        </mxCell>
        <mxCell id="mprhrPH2lkljQKYMVjD2-752" value="5/95" style="text;html=1;align=center;verticalAlign=middle;whiteSpace=wrap;rounded=0;" parent="1" vertex="1">
          <mxGeometry x="779.99" y="2885" width="60" height="30" as="geometry" />
        </mxCell>
        <mxCell id="mprhrPH2lkljQKYMVjD2-753" value="" style="rounded=0;whiteSpace=wrap;html=1;rotation=90;" parent="1" vertex="1">
          <mxGeometry x="829.62" y="2956.74" width="78.25" height="9.13" as="geometry" />
        </mxCell>
        <mxCell id="mprhrPH2lkljQKYMVjD2-754" value="" style="triangle;whiteSpace=wrap;html=1;rotation=-180;direction=south;" parent="1" vertex="1">
          <mxGeometry x="827.87" y="2981.74" width="80" height="60" as="geometry" />
        </mxCell>
        <mxCell id="mprhrPH2lkljQKYMVjD2-755" value="1:16" style="text;html=1;align=center;verticalAlign=middle;whiteSpace=wrap;rounded=0;" parent="1" vertex="1">
          <mxGeometry x="837.87" y="3001.74" width="60" height="30" as="geometry" />
        </mxCell>
        <mxCell id="mprhrPH2lkljQKYMVjD2-756" value="" style="rounded=0;whiteSpace=wrap;html=1;rotation=-180;" parent="1" vertex="1">
          <mxGeometry x="856.99" y="2916.31" width="78.25" height="9.13" as="geometry" />
        </mxCell>
        <mxCell id="mprhrPH2lkljQKYMVjD2-757" value="" style="triangle;whiteSpace=wrap;html=1;rotation=0;" parent="1" vertex="1">
          <mxGeometry x="916.9899999999999" y="2861.74" width="70" height="80" as="geometry" />
        </mxCell>
        <mxCell id="mprhrPH2lkljQKYMVjD2-758" value="5/95" style="text;html=1;align=center;verticalAlign=middle;whiteSpace=wrap;rounded=0;" parent="1" vertex="1">
          <mxGeometry x="916.9899999999999" y="2886.74" width="60" height="30" as="geometry" />
        </mxCell>
        <mxCell id="mprhrPH2lkljQKYMVjD2-759" value="" style="rounded=0;whiteSpace=wrap;html=1;rotation=-180;" parent="1" vertex="1">
          <mxGeometry x="-180.88" y="2914.62" width="78.25" height="9.13" as="geometry" />
        </mxCell>
        <mxCell id="mprhrPH2lkljQKYMVjD2-760" value="" style="rounded=0;whiteSpace=wrap;html=1;rotation=-180;" parent="1" vertex="1">
          <mxGeometry x="-39.99999999999999" y="2915.49" width="78.25" height="9.13" as="geometry" />
        </mxCell>
        <mxCell id="mprhrPH2lkljQKYMVjD2-761" value="" style="rounded=0;whiteSpace=wrap;html=1;rotation=90;" parent="1" vertex="1">
          <mxGeometry x="2.62999999999999" y="2950.49" width="78.25" height="9.13" as="geometry" />
        </mxCell>
        <mxCell id="mprhrPH2lkljQKYMVjD2-762" value="" style="rounded=0;whiteSpace=wrap;html=1;rotation=-180;" parent="1" vertex="1">
          <mxGeometry x="99.99999999999999" y="2914.62" width="78.25" height="9.13" as="geometry" />
        </mxCell>
        <mxCell id="mprhrPH2lkljQKYMVjD2-763" value="" style="rounded=0;whiteSpace=wrap;html=1;rotation=-180;" parent="1" vertex="1">
          <mxGeometry x="240" y="2915.49" width="78.25" height="9.13" as="geometry" />
        </mxCell>
        <mxCell id="mprhrPH2lkljQKYMVjD2-764" value="" style="rounded=0;whiteSpace=wrap;html=1;" parent="1" vertex="1">
          <mxGeometry x="-270" y="2895.49" width="670" height="10" as="geometry" />
        </mxCell>
        <mxCell id="mprhrPH2lkljQKYMVjD2-765" value="" style="triangle;whiteSpace=wrap;html=1;rotation=-180;" parent="1" vertex="1">
          <mxGeometry x="-220" y="2860.49" width="70" height="80" as="geometry" />
        </mxCell>
        <mxCell id="mprhrPH2lkljQKYMVjD2-766" value="5/95" style="text;html=1;align=center;verticalAlign=middle;whiteSpace=wrap;rounded=0;" parent="1" vertex="1">
          <mxGeometry x="-200" y="2885.49" width="60" height="30" as="geometry" />
        </mxCell>
        <mxCell id="mprhrPH2lkljQKYMVjD2-767" value="" style="triangle;whiteSpace=wrap;html=1;rotation=-180;" parent="1" vertex="1">
          <mxGeometry x="-80.00000000000001" y="2860.49" width="70" height="80" as="geometry" />
        </mxCell>
        <mxCell id="mprhrPH2lkljQKYMVjD2-768" value="5/95" style="text;html=1;align=center;verticalAlign=middle;whiteSpace=wrap;rounded=0;" parent="1" vertex="1">
          <mxGeometry x="-60" y="2885.49" width="60" height="30" as="geometry" />
        </mxCell>
        <mxCell id="mprhrPH2lkljQKYMVjD2-769" value="" style="triangle;whiteSpace=wrap;html=1;rotation=-180;" parent="1" vertex="1">
          <mxGeometry x="49.99999999999999" y="2860.49" width="70" height="80" as="geometry" />
        </mxCell>
        <mxCell id="mprhrPH2lkljQKYMVjD2-770" value="5/95" style="text;html=1;align=center;verticalAlign=middle;whiteSpace=wrap;rounded=0;" parent="1" vertex="1">
          <mxGeometry x="70" y="2885.49" width="60" height="30" as="geometry" />
        </mxCell>
        <mxCell id="mprhrPH2lkljQKYMVjD2-771" value="" style="triangle;whiteSpace=wrap;html=1;rotation=-180;" parent="1" vertex="1">
          <mxGeometry x="190" y="2860.49" width="70" height="80" as="geometry" />
        </mxCell>
        <mxCell id="mprhrPH2lkljQKYMVjD2-772" value="5/95" style="text;html=1;align=center;verticalAlign=middle;whiteSpace=wrap;rounded=0;" parent="1" vertex="1">
          <mxGeometry x="210" y="2885.49" width="60" height="30" as="geometry" />
        </mxCell>
        <mxCell id="mprhrPH2lkljQKYMVjD2-773" value="" style="rounded=0;whiteSpace=wrap;html=1;rotation=90;" parent="1" vertex="1">
          <mxGeometry x="278.16" y="2945.1499999999996" width="69.83" height="9.13" as="geometry" />
        </mxCell>
        <mxCell id="mprhrPH2lkljQKYMVjD2-774" value="" style="rounded=0;whiteSpace=wrap;html=1;rotation=90;" parent="1" vertex="1">
          <mxGeometry x="142.63" y="2949.62" width="78.25" height="9.13" as="geometry" />
        </mxCell>
        <mxCell id="mprhrPH2lkljQKYMVjD2-775" value="" style="rounded=0;whiteSpace=wrap;html=1;rotation=90;" parent="1" vertex="1">
          <mxGeometry x="-138.25" y="2949.62" width="78.25" height="9.13" as="geometry" />
        </mxCell>
        <mxCell id="mprhrPH2lkljQKYMVjD2-776" value="" style="triangle;whiteSpace=wrap;html=1;rotation=-180;direction=south;" parent="1" vertex="1">
          <mxGeometry x="-138.25" y="2975.49" width="80" height="60" as="geometry" />
        </mxCell>
        <mxCell id="mprhrPH2lkljQKYMVjD2-777" value="1:16" style="text;html=1;align=center;verticalAlign=middle;whiteSpace=wrap;rounded=0;" parent="1" vertex="1">
          <mxGeometry x="-128.25" y="2995.49" width="60" height="30" as="geometry" />
        </mxCell>
        <mxCell id="mprhrPH2lkljQKYMVjD2-778" value="" style="triangle;whiteSpace=wrap;html=1;rotation=-180;direction=south;" parent="1" vertex="1">
          <mxGeometry x="0.8799999999999901" y="2975.49" width="80" height="60" as="geometry" />
        </mxCell>
        <mxCell id="mprhrPH2lkljQKYMVjD2-779" value="1:16" style="text;html=1;align=center;verticalAlign=middle;whiteSpace=wrap;rounded=0;" parent="1" vertex="1">
          <mxGeometry x="10.87999999999999" y="2995.49" width="60" height="30" as="geometry" />
        </mxCell>
        <mxCell id="mprhrPH2lkljQKYMVjD2-780" value="" style="triangle;whiteSpace=wrap;html=1;rotation=-180;direction=south;" parent="1" vertex="1">
          <mxGeometry x="142.63" y="2975.49" width="80" height="60" as="geometry" />
        </mxCell>
        <mxCell id="mprhrPH2lkljQKYMVjD2-781" value="1:16" style="text;html=1;align=center;verticalAlign=middle;whiteSpace=wrap;rounded=0;" parent="1" vertex="1">
          <mxGeometry x="152.63" y="2995.49" width="60" height="30" as="geometry" />
        </mxCell>
        <mxCell id="mprhrPH2lkljQKYMVjD2-782" value="" style="triangle;whiteSpace=wrap;html=1;rotation=-180;direction=south;" parent="1" vertex="1">
          <mxGeometry x="273.07" y="2975.49" width="80" height="60" as="geometry" />
        </mxCell>
        <mxCell id="mprhrPH2lkljQKYMVjD2-783" value="1:16" style="text;html=1;align=center;verticalAlign=middle;whiteSpace=wrap;rounded=0;" parent="1" vertex="1">
          <mxGeometry x="283.07" y="2995.49" width="60" height="30" as="geometry" />
        </mxCell>
        <mxCell id="mprhrPH2lkljQKYMVjD2-786" value="" style="rounded=0;whiteSpace=wrap;html=1;rotation=90;" parent="1" vertex="1">
          <mxGeometry x="561.75" y="3213.4799999999996" width="78.25" height="9.13" as="geometry" />
        </mxCell>
        <mxCell id="mprhrPH2lkljQKYMVjD2-787" value="" style="triangle;whiteSpace=wrap;html=1;rotation=-180;direction=south;" parent="1" vertex="1">
          <mxGeometry x="560" y="3238.4799999999996" width="80" height="60" as="geometry" />
        </mxCell>
        <mxCell id="mprhrPH2lkljQKYMVjD2-788" value="1:16" style="text;html=1;align=center;verticalAlign=middle;whiteSpace=wrap;rounded=0;" parent="1" vertex="1">
          <mxGeometry x="570" y="3258.4799999999996" width="60" height="30" as="geometry" />
        </mxCell>
        <mxCell id="mprhrPH2lkljQKYMVjD2-789" value="" style="rounded=0;whiteSpace=wrap;html=1;rotation=90;" parent="1" vertex="1">
          <mxGeometry x="430" y="3211.74" width="78.25" height="9.13" as="geometry" />
        </mxCell>
        <mxCell id="mprhrPH2lkljQKYMVjD2-790" value="" style="rounded=0;whiteSpace=wrap;html=1;rotation=-180;" parent="1" vertex="1">
          <mxGeometry x="460" y="3171.3099999999995" width="78.25" height="9.13" as="geometry" />
        </mxCell>
        <mxCell id="mprhrPH2lkljQKYMVjD2-791" value="" style="rounded=0;whiteSpace=wrap;html=1;rotation=-180;" parent="1" vertex="1">
          <mxGeometry x="589.12" y="3173.0499999999997" width="78.25" height="9.13" as="geometry" />
        </mxCell>
        <mxCell id="mprhrPH2lkljQKYMVjD2-792" value="" style="rounded=0;whiteSpace=wrap;html=1;" parent="1" vertex="1">
          <mxGeometry x="420" y="3152.6099999999997" width="500" height="10" as="geometry" />
        </mxCell>
        <mxCell id="mprhrPH2lkljQKYMVjD2-793" value="" style="triangle;whiteSpace=wrap;html=1;rotation=0;" parent="1" vertex="1">
          <mxGeometry x="520.88" y="3116.74" width="70" height="80" as="geometry" />
        </mxCell>
        <mxCell id="mprhrPH2lkljQKYMVjD2-794" value="2/98" style="text;html=1;align=center;verticalAlign=middle;whiteSpace=wrap;rounded=0;" parent="1" vertex="1">
          <mxGeometry x="520.88" y="3141.31" width="60" height="30" as="geometry" />
        </mxCell>
        <mxCell id="mprhrPH2lkljQKYMVjD2-795" value="" style="triangle;whiteSpace=wrap;html=1;rotation=-180;direction=south;" parent="1" vertex="1">
          <mxGeometry x="430" y="3237.6099999999997" width="80" height="60" as="geometry" />
        </mxCell>
        <mxCell id="mprhrPH2lkljQKYMVjD2-796" value="1:16" style="text;html=1;align=center;verticalAlign=middle;whiteSpace=wrap;rounded=0;" parent="1" vertex="1">
          <mxGeometry x="440" y="3257.6099999999997" width="60" height="30" as="geometry" />
        </mxCell>
        <mxCell id="mprhrPH2lkljQKYMVjD2-797" value="" style="triangle;whiteSpace=wrap;html=1;rotation=0;" parent="1" vertex="1">
          <mxGeometry x="649.12" y="3118.4799999999996" width="70" height="80" as="geometry" />
        </mxCell>
        <mxCell id="mprhrPH2lkljQKYMVjD2-798" value="2/98" style="text;html=1;align=center;verticalAlign=middle;whiteSpace=wrap;rounded=0;" parent="1" vertex="1">
          <mxGeometry x="649.12" y="3143.48" width="60" height="30" as="geometry" />
        </mxCell>
        <mxCell id="mprhrPH2lkljQKYMVjD2-799" value="" style="rounded=0;whiteSpace=wrap;html=1;rotation=90;" parent="1" vertex="1">
          <mxGeometry x="691.75" y="3211.74" width="78.25" height="9.13" as="geometry" />
        </mxCell>
        <mxCell id="mprhrPH2lkljQKYMVjD2-800" value="" style="triangle;whiteSpace=wrap;html=1;rotation=-180;direction=south;" parent="1" vertex="1">
          <mxGeometry x="690" y="3236.74" width="80" height="60" as="geometry" />
        </mxCell>
        <mxCell id="mprhrPH2lkljQKYMVjD2-801" value="1:16" style="text;html=1;align=center;verticalAlign=middle;whiteSpace=wrap;rounded=0;" parent="1" vertex="1">
          <mxGeometry x="700" y="3256.74" width="60" height="30" as="geometry" />
        </mxCell>
        <mxCell id="mprhrPH2lkljQKYMVjD2-802" value="" style="rounded=0;whiteSpace=wrap;html=1;rotation=-180;" parent="1" vertex="1">
          <mxGeometry x="719.12" y="3171.3099999999995" width="78.25" height="9.13" as="geometry" />
        </mxCell>
        <mxCell id="mprhrPH2lkljQKYMVjD2-803" value="" style="triangle;whiteSpace=wrap;html=1;rotation=0;" parent="1" vertex="1">
          <mxGeometry x="779.12" y="3116.74" width="70" height="80" as="geometry" />
        </mxCell>
        <mxCell id="mprhrPH2lkljQKYMVjD2-804" value="2/98" style="text;html=1;align=center;verticalAlign=middle;whiteSpace=wrap;rounded=0;" parent="1" vertex="1">
          <mxGeometry x="779.12" y="3141.74" width="60" height="30" as="geometry" />
        </mxCell>
        <mxCell id="mprhrPH2lkljQKYMVjD2-812" value="" style="rounded=0;whiteSpace=wrap;html=1;rotation=-180;" parent="1" vertex="1">
          <mxGeometry x="-180.88" y="3170.87" width="78.25" height="9.13" as="geometry" />
        </mxCell>
        <mxCell id="mprhrPH2lkljQKYMVjD2-813" value="" style="rounded=0;whiteSpace=wrap;html=1;rotation=-180;" parent="1" vertex="1">
          <mxGeometry x="-40" y="3171.74" width="78.25" height="9.13" as="geometry" />
        </mxCell>
        <mxCell id="mprhrPH2lkljQKYMVjD2-814" value="" style="rounded=0;whiteSpace=wrap;html=1;rotation=90;" parent="1" vertex="1">
          <mxGeometry x="2.6299999999999955" y="3206.74" width="78.25" height="9.13" as="geometry" />
        </mxCell>
        <mxCell id="mprhrPH2lkljQKYMVjD2-815" value="" style="rounded=0;whiteSpace=wrap;html=1;rotation=-180;" parent="1" vertex="1">
          <mxGeometry x="98.25" y="3170.87" width="80" height="9.13" as="geometry" />
        </mxCell>
        <mxCell id="mprhrPH2lkljQKYMVjD2-816" value="" style="rounded=0;whiteSpace=wrap;html=1;rotation=-180;" parent="1" vertex="1">
          <mxGeometry x="240" y="3171.74" width="78.25" height="9.13" as="geometry" />
        </mxCell>
        <mxCell id="mprhrPH2lkljQKYMVjD2-817" value="" style="rounded=0;whiteSpace=wrap;html=1;" parent="1" vertex="1">
          <mxGeometry x="-640" y="3151.74" width="1040" height="10" as="geometry" />
        </mxCell>
        <mxCell id="mprhrPH2lkljQKYMVjD2-818" value="" style="triangle;whiteSpace=wrap;html=1;rotation=-180;" parent="1" vertex="1">
          <mxGeometry x="-220" y="3116.74" width="70" height="80" as="geometry" />
        </mxCell>
        <mxCell id="mprhrPH2lkljQKYMVjD2-819" value="5/95" style="text;html=1;align=center;verticalAlign=middle;whiteSpace=wrap;rounded=0;" parent="1" vertex="1">
          <mxGeometry x="-200" y="3141.74" width="60" height="30" as="geometry" />
        </mxCell>
        <mxCell id="mprhrPH2lkljQKYMVjD2-820" value="" style="triangle;whiteSpace=wrap;html=1;rotation=-180;" parent="1" vertex="1">
          <mxGeometry x="-80" y="3116.74" width="70" height="80" as="geometry" />
        </mxCell>
        <mxCell id="mprhrPH2lkljQKYMVjD2-821" value="5/95" style="text;html=1;align=center;verticalAlign=middle;whiteSpace=wrap;rounded=0;" parent="1" vertex="1">
          <mxGeometry x="-60" y="3141.74" width="60" height="30" as="geometry" />
        </mxCell>
        <mxCell id="mprhrPH2lkljQKYMVjD2-822" value="" style="triangle;whiteSpace=wrap;html=1;rotation=-180;" parent="1" vertex="1">
          <mxGeometry x="50" y="3116.74" width="70" height="80" as="geometry" />
        </mxCell>
        <mxCell id="mprhrPH2lkljQKYMVjD2-823" value="5/95" style="text;html=1;align=center;verticalAlign=middle;whiteSpace=wrap;rounded=0;" parent="1" vertex="1">
          <mxGeometry x="70" y="3141.74" width="60" height="30" as="geometry" />
        </mxCell>
        <mxCell id="mprhrPH2lkljQKYMVjD2-824" value="" style="triangle;whiteSpace=wrap;html=1;rotation=-180;" parent="1" vertex="1">
          <mxGeometry x="190" y="3116.74" width="70" height="80" as="geometry" />
        </mxCell>
        <mxCell id="mprhrPH2lkljQKYMVjD2-825" value="5/95" style="text;html=1;align=center;verticalAlign=middle;whiteSpace=wrap;rounded=0;" parent="1" vertex="1">
          <mxGeometry x="210" y="3141.74" width="60" height="30" as="geometry" />
        </mxCell>
        <mxCell id="mprhrPH2lkljQKYMVjD2-826" value="" style="rounded=0;whiteSpace=wrap;html=1;rotation=90;" parent="1" vertex="1">
          <mxGeometry x="282.16" y="3197.4" width="61.84" height="9.13" as="geometry" />
        </mxCell>
        <mxCell id="mprhrPH2lkljQKYMVjD2-827" value="" style="rounded=0;whiteSpace=wrap;html=1;rotation=90;" parent="1" vertex="1">
          <mxGeometry x="142.63" y="3205.87" width="78.25" height="9.13" as="geometry" />
        </mxCell>
        <mxCell id="mprhrPH2lkljQKYMVjD2-828" value="" style="rounded=0;whiteSpace=wrap;html=1;rotation=90;" parent="1" vertex="1">
          <mxGeometry x="-138.25" y="3205.87" width="78.25" height="9.13" as="geometry" />
        </mxCell>
        <mxCell id="mprhrPH2lkljQKYMVjD2-829" value="" style="triangle;whiteSpace=wrap;html=1;rotation=-180;direction=south;" parent="1" vertex="1">
          <mxGeometry x="-138.25" y="3231.74" width="80" height="60" as="geometry" />
        </mxCell>
        <mxCell id="mprhrPH2lkljQKYMVjD2-830" value="1:16" style="text;html=1;align=center;verticalAlign=middle;whiteSpace=wrap;rounded=0;" parent="1" vertex="1">
          <mxGeometry x="-128.25" y="3251.74" width="60" height="30" as="geometry" />
        </mxCell>
        <mxCell id="mprhrPH2lkljQKYMVjD2-831" value="" style="triangle;whiteSpace=wrap;html=1;rotation=-180;direction=south;" parent="1" vertex="1">
          <mxGeometry x="0.8799999999999955" y="3231.74" width="80" height="60" as="geometry" />
        </mxCell>
        <mxCell id="mprhrPH2lkljQKYMVjD2-832" value="1:16" style="text;html=1;align=center;verticalAlign=middle;whiteSpace=wrap;rounded=0;" parent="1" vertex="1">
          <mxGeometry x="10.879999999999995" y="3251.74" width="60" height="30" as="geometry" />
        </mxCell>
        <mxCell id="mprhrPH2lkljQKYMVjD2-833" value="" style="triangle;whiteSpace=wrap;html=1;rotation=-180;direction=south;" parent="1" vertex="1">
          <mxGeometry x="142.63" y="3231.74" width="80" height="60" as="geometry" />
        </mxCell>
        <mxCell id="mprhrPH2lkljQKYMVjD2-834" value="1:16" style="text;html=1;align=center;verticalAlign=middle;whiteSpace=wrap;rounded=0;" parent="1" vertex="1">
          <mxGeometry x="152.63" y="3251.74" width="60" height="30" as="geometry" />
        </mxCell>
        <mxCell id="mprhrPH2lkljQKYMVjD2-835" value="" style="triangle;whiteSpace=wrap;html=1;rotation=-180;direction=south;" parent="1" vertex="1">
          <mxGeometry x="273.07" y="3231.74" width="80" height="60" as="geometry" />
        </mxCell>
        <mxCell id="mprhrPH2lkljQKYMVjD2-836" value="1:16" style="text;html=1;align=center;verticalAlign=middle;whiteSpace=wrap;rounded=0;" parent="1" vertex="1">
          <mxGeometry x="283.07" y="3251.74" width="60" height="30" as="geometry" />
        </mxCell>
        <mxCell id="mprhrPH2lkljQKYMVjD2-837" value="" style="rounded=0;whiteSpace=wrap;html=1;rotation=-180;" parent="1" vertex="1">
          <mxGeometry x="-342.63" y="3170.87" width="78.25" height="9.13" as="geometry" />
        </mxCell>
        <mxCell id="mprhrPH2lkljQKYMVjD2-838" value="" style="triangle;whiteSpace=wrap;html=1;rotation=-180;" parent="1" vertex="1">
          <mxGeometry x="-381.75" y="3116.74" width="70" height="80" as="geometry" />
        </mxCell>
        <mxCell id="mprhrPH2lkljQKYMVjD2-839" value="5/95" style="text;html=1;align=center;verticalAlign=middle;whiteSpace=wrap;rounded=0;" parent="1" vertex="1">
          <mxGeometry x="-361.75" y="3141.74" width="60" height="30" as="geometry" />
        </mxCell>
        <mxCell id="mprhrPH2lkljQKYMVjD2-840" value="" style="rounded=0;whiteSpace=wrap;html=1;rotation=90;" parent="1" vertex="1">
          <mxGeometry x="-300" y="3205.87" width="78.25" height="9.13" as="geometry" />
        </mxCell>
        <mxCell id="mprhrPH2lkljQKYMVjD2-841" value="" style="triangle;whiteSpace=wrap;html=1;rotation=-180;direction=south;" parent="1" vertex="1">
          <mxGeometry x="-300" y="3231.74" width="80" height="60" as="geometry" />
        </mxCell>
        <mxCell id="mprhrPH2lkljQKYMVjD2-842" value="1:16" style="text;html=1;align=center;verticalAlign=middle;whiteSpace=wrap;rounded=0;" parent="1" vertex="1">
          <mxGeometry x="-290" y="3251.74" width="60" height="30" as="geometry" />
        </mxCell>
        <mxCell id="mprhrPH2lkljQKYMVjD2-843" value="" style="rounded=0;whiteSpace=wrap;html=1;rotation=-180;" parent="1" vertex="1">
          <mxGeometry x="-504.38" y="3170.87" width="78.25" height="9.13" as="geometry" />
        </mxCell>
        <mxCell id="mprhrPH2lkljQKYMVjD2-844" value="" style="triangle;whiteSpace=wrap;html=1;rotation=-180;" parent="1" vertex="1">
          <mxGeometry x="-543.5" y="3116.74" width="70" height="80" as="geometry" />
        </mxCell>
        <mxCell id="mprhrPH2lkljQKYMVjD2-845" value="5/95" style="text;html=1;align=center;verticalAlign=middle;whiteSpace=wrap;rounded=0;" parent="1" vertex="1">
          <mxGeometry x="-523.5" y="3141.74" width="60" height="30" as="geometry" />
        </mxCell>
        <mxCell id="mprhrPH2lkljQKYMVjD2-846" value="" style="rounded=0;whiteSpace=wrap;html=1;rotation=90;" parent="1" vertex="1">
          <mxGeometry x="-461.75" y="3205.87" width="78.25" height="9.13" as="geometry" />
        </mxCell>
        <mxCell id="mprhrPH2lkljQKYMVjD2-847" value="" style="triangle;whiteSpace=wrap;html=1;rotation=-180;direction=south;" parent="1" vertex="1">
          <mxGeometry x="-461.75" y="3231.74" width="80" height="60" as="geometry" />
        </mxCell>
        <mxCell id="mprhrPH2lkljQKYMVjD2-848" value="1:16" style="text;html=1;align=center;verticalAlign=middle;whiteSpace=wrap;rounded=0;" parent="1" vertex="1">
          <mxGeometry x="-451.75" y="3251.74" width="60" height="30" as="geometry" />
        </mxCell>
      </root>
    </mxGraphModel>
  </diagram>
</mxfile>
